<?xml version="1.0" encoding="utf-8"?>
<!-- Generator: Adobe Illustrator 21.0.2, SVG Export Plug-In . SVG Version: 6.00 Build 0)  -->
<svg version="1.1" id="Слой_1" xmlns="http://www.w3.org/2000/svg" xmlns:xlink="http://www.w3.org/1999/xlink" x="0px" y="0px"
	 viewBox="0 0 300 300" style="enable-background:new 0 0 300 300;" xml:space="preserve">
<g>
	<path d="M141.2,269.2l0-4.6c3.2,0,6.5-0.1,9.7-0.4l0.3,4.6C148,269.1,144.6,269.2,141.2,269.2z M131.1,268.8
		c-3.3-0.2-6.7-0.6-10-1.1l0.7-4.5c3.2,0.5,6.5,0.8,9.7,1.1L131.1,268.8z M161.3,267.7l-0.7-4.5c3.2-0.5,6.4-1.1,9.6-1.8l1,4.5
		C167.9,266.6,164.6,267.2,161.3,267.7z M111.2,265.9c-3.3-0.7-6.5-1.6-9.7-2.6l1.3-4.4c3.1,0.9,6.3,1.8,9.4,2.5L111.2,265.9z
		 M180.9,263.2l-1.4-4.4c3.1-1,6.2-2,9.2-3.2l1.7,4.3C187.3,261.1,184.1,262.2,180.9,263.2z M92,260c-3.1-1.2-6.2-2.6-9.3-4l2-4.1
		c2.9,1.4,5.9,2.7,8.9,3.9L92,260z M199.7,255.9l-2-4.1c2.9-1.4,5.8-2.9,8.6-4.6l2.3,4C205.7,252.8,202.7,254.4,199.7,255.9z
		 M73.8,251.2c-2.9-1.7-5.8-3.5-8.5-5.4l2.6-3.8c2.7,1.8,5.4,3.6,8.2,5.2L73.8,251.2z M217.1,245.7l-2.6-3.8
		c2.7-1.8,5.3-3.8,7.8-5.8l2.9,3.6C222.6,241.8,219.8,243.8,217.1,245.7z M57.1,239.8c-2.6-2.1-5.2-4.3-7.6-6.6l3.1-3.4
		c2.4,2.2,4.8,4.4,7.4,6.4L57.1,239.8z M232.8,233.1l-3.1-3.4c2.4-2.2,4.7-4.5,6.8-6.9l3.4,3.1C237.6,228.4,235.2,230.8,232.8,233.1
		z M42.4,226c-2.3-2.5-4.5-5.1-6.5-7.7l3.6-2.8c2,2.5,4.1,5,6.3,7.4L42.4,226z M246.4,218.2l-3.6-2.8c2-2.5,3.9-5.2,5.7-7.9l3.8,2.5
		C250.4,212.9,248.5,215.6,246.4,218.2z M30,210.2c-1.9-2.8-3.6-5.7-5.3-8.6l4-2.3c1.6,2.8,3.3,5.6,5.1,8.3L30,210.2z M257.6,201.5
		l-4-2.2c1.6-2.8,3.1-5.7,4.4-8.7l4.2,1.9C260.7,195.5,259.2,198.5,257.6,201.5z M20.1,192.6c-1.4-3-2.7-6.2-3.9-9.3l4.3-1.6
		c1.1,3,2.4,6,3.7,9L20.1,192.6z M266,183.1l-4.3-1.6c1.1-3,2.1-6.1,3-9.3l4.4,1.2C268.2,176.8,267.2,180,266,183.1z M13.1,173.7
		c-0.9-3.2-1.7-6.5-2.4-9.8l4.5-0.9c0.6,3.2,1.4,6.4,2.3,9.5L13.1,173.7z M271.5,163.7l-4.5-0.9c0.6-3.2,1.1-6.4,1.5-9.6l4.6,0.5
		C272.6,157.1,272.1,160.4,271.5,163.7z M9.2,153.9c-0.4-3.3-0.7-6.7-0.8-10.1l4.6-0.2c0.1,3.2,0.4,6.5,0.8,9.7L9.2,153.9z
		 M273.8,143.7l-4.6-0.2c0.1-1.6,0.1-3.2,0.1-4.8c0-1.6,0-3.3-0.1-4.9l4.6-0.2c0.1,1.7,0.1,3.4,0.1,5.1
		C273.9,140.4,273.9,142,273.8,143.7z M13,134l-4.6-0.2c0.1-3.4,0.4-6.7,0.8-10.1l4.6,0.5C13.4,127.5,13.1,130.7,13,134z
		 M268.4,124.1c-0.4-3.2-0.9-6.4-1.5-9.6l4.5-0.9c0.7,3.3,1.2,6.6,1.6,10L268.4,124.1z M15.2,114.7l-4.5-0.9
		c0.6-3.3,1.4-6.6,2.3-9.8l4.4,1.2C16.6,108.3,15.9,111.5,15.2,114.7z M264.7,105c-0.9-3.1-1.9-6.2-3-9.2l4.3-1.6
		c1.2,3.1,2.2,6.4,3.1,9.6L264.7,105z M20.5,96l-4.3-1.6c1.2-3.1,2.5-6.3,3.9-9.3l4.2,1.9C22.8,89.9,21.6,92.9,20.5,96z M257.9,86.8
		c-1.3-2.9-2.8-5.8-4.4-8.7l4-2.2c1.6,2.9,3.2,6,4.6,9L257.9,86.8z M28.6,78.3l-4-2.2c1.6-2.9,3.4-5.8,5.3-8.6l3.8,2.5
		C31.9,72.7,30.2,75.5,28.6,78.3z M248.4,69.8c-1.8-2.7-3.7-5.3-5.7-7.9l3.6-2.8c2.1,2.6,4.1,5.4,5.9,8.2L248.4,69.8z M39.4,62.1
		l-3.6-2.8c2.1-2.6,4.3-5.2,6.5-7.7l3.4,3.1C43.5,57,41.4,59.5,39.4,62.1z M236.4,54.5c-2.2-2.4-4.5-4.7-6.8-6.9l3.1-3.4
		c2.4,2.3,4.8,4.7,7.1,7.2L236.4,54.5z M52.5,47.7l-3.1-3.4c2.4-2.3,5-4.5,7.6-6.6l2.9,3.6C57.3,43.4,54.8,45.5,52.5,47.7z
		 M222.3,41.2c-2.5-2-5.2-4-7.8-5.8l2.6-3.8c2.8,1.9,5.5,3.9,8.1,6L222.3,41.2z M67.6,35.5L65,31.7c2.8-1.9,5.6-3.7,8.5-5.4l2.3,4
		C73.1,31.9,70.3,33.7,67.6,35.5z M206.2,30.2c-2.8-1.6-5.7-3.2-8.6-4.6l2-4.1c3,1.5,6,3,8.9,4.7L206.2,30.2z M84.4,25.7l-2-4.1
		c3-1.5,6.1-2.8,9.2-4l1.7,4.3C90.3,23,87.3,24.3,84.4,25.7z M188.7,21.8c-3-1.2-6.1-2.3-9.2-3.2l1.4-4.4c3.2,1,6.4,2.1,9.5,3.3
		L188.7,21.8z M102.5,18.6l-1.4-4.4c3.2-1,6.5-1.9,9.7-2.6l1,4.5C108.8,16.8,105.6,17.6,102.5,18.6z M170.1,16
		c-3.2-0.7-6.4-1.3-9.6-1.8l0.7-4.5c3.3,0.5,6.6,1.1,9.9,1.9L170.1,16z M121.5,14.3l-0.7-4.5c3.3-0.5,6.7-0.9,10-1.1l0.3,4.6
		C127.9,13.4,124.7,13.8,121.5,14.3z M150.8,13.2c-3.2-0.2-6.5-0.4-9.7-0.4l-0.2,0V8.2l0.2,0c3.4,0,6.8,0.1,10.1,0.4L150.8,13.2z"/>
</g>
</svg>
