<?xml version="1.0" encoding="utf-8"?>
<!-- Generator: Adobe Illustrator 21.0.2, SVG Export Plug-In . SVG Version: 6.00 Build 0)  -->
<svg version="1.1" id="Слой_1" xmlns="http://www.w3.org/2000/svg" xmlns:xlink="http://www.w3.org/1999/xlink" x="0px" y="0px"
	 viewBox="0 0 300 300" style="enable-background:new 0 0 300 300;" xml:space="preserve">
<style type="text/css">
	.st0{fill:#FFFFFF;}
	.st1{fill:#036A91;}
	.st2{opacity:0.1;fill:#FFFFFF;}
	.st3{opacity:0.2;fill:#FFFFFF;}
	.st4{fill:url(#SVGID_1_);}
	.st5{fill:url(#SVGID_2_);}
	.st6{fill:url(#SVGID_3_);}
	.st7{fill:url(#SVGID_4_);}
</style>
<g>
	<polygon class="st0" points="158.4,270.2 112.3,223.6 158.4,177.1 204.4,223.6 	"/>
	<g>
		<polygon class="st1" points="157.7,257.4 47.1,145.7 157.7,33.9 268.4,145.7 		"/>
		<path class="st2" d="M231.9,182.5c-18.6-31.3-52.5-52.2-91.2-52.2c-30,0-57.1,12.5-76.4,32.7l93.5,94.4L231.9,182.5z"/>
		<path class="st3" d="M189.4,145.6c0-39.2-18.9-73.8-48-95.3l-94.4,95.3l94.4,95.3C170.5,219.5,189.4,184.8,189.4,145.6z"/>
	</g>
	<g>
		<polygon class="st1" points="36.8,132.7 9,104.6 36.8,76.5 64.6,104.6 		"/>
		<polygon class="st0" points="216.1,75.5 193.8,53 216.1,30.5 238.3,53 		"/>
		<polygon class="st0" points="9,157.9 1.4,150.3 9,142.6 16.6,150.3 		"/>
		<polygon class="st0" points="10.4,136.8 0,126.4 10.4,115.9 20.7,126.4 		"/>
	</g>
	<g>
		<g>
			
				<radialGradient id="SVGID_1_" cx="171.4463" cy="74.9436" r="74.0827" gradientTransform="matrix(0.7931 0 0 0.8008 -4.0053 -11.829)" gradientUnits="userSpaceOnUse">
				<stop  offset="0.1584" style="stop-color:#FFFFFF"/>
				<stop  offset="1" style="stop-color:#D6D6D6"/>
			</radialGradient>
			<polygon class="st4" points="64.9,96.4 63.9,95.4 158.4,0 200,42 199,43 158.4,2 			"/>
		</g>
		<g>
			
				<radialGradient id="SVGID_2_" cx="93.2447" cy="253.9763" r="72.8015" gradientTransform="matrix(0.7931 0 0 0.8008 -4.0053 -11.829)" gradientUnits="userSpaceOnUse">
				<stop  offset="0.1584" style="stop-color:#FFFFFF"/>
				<stop  offset="1" style="stop-color:#D6D6D6"/>
			</radialGradient>
			<polygon class="st5" points="123.3,253 15.6,144.2 29.6,130.1 30.6,131.1 17.6,144.2 124.3,252 			"/>
		</g>
		<g>
			<path class="st0" d="M158.3,284.5l3-3.1l3,3.1l-3,3C158.3,284.5,161.3,287.5,158.3,284.5z M170.6,272l3-3l3,3l-3,3
				C170.6,272,173.6,275.1,170.6,272z M182.9,259.6l3-3l3,3l-3,3.1C182.9,259.6,185.9,262.6,182.9,259.6z M195.3,247.1l3-3.1l3,3.1
				l-3,3C195.3,247.1,198.3,250.2,195.3,247.1z M207.6,234.7l3-3l3,3l-3,3.1C207.6,234.7,210.6,237.7,207.6,234.7z M219.9,222.2l3-3
				l3,3l-3,3.1C219.9,222.2,223,225.3,219.9,222.2z M232.3,209.7l3-3.1l3,3.1l-3,3C232.3,209.7,235.3,212.8,232.3,209.7z
				 M244.6,197.3l3-3l3,3l-3,3C244.6,197.3,247.6,200.3,244.6,197.3z M257,184.8l3-3.1l3,3.1l-3,3C257,184.8,260,187.9,257,184.8z
				 M269.3,172.4l3-3l3,3l-3,3C269.3,172.4,272.3,175.4,269.3,172.4z M281.6,159.9l3-3l3,3l-3,3.1
				C281.6,159.9,284.6,163,281.6,159.9z M294,147.5l3-3l3,3l-3,3C294,147.5,297,150.5,294,147.5z M288.1,135l3-3l3,3l-3,3
				C288.1,135,291.1,138,288.1,135z M275.7,122.5l3-3l3,3l-3,3.1C275.7,122.5,278.7,125.6,275.7,122.5z M263.4,110.1l3-3.1l3,3.1
				l-3,3C263.4,110.1,266.4,113.1,263.4,110.1z M251,97.6l3-3l3,3l-3,3C251,97.6,254.1,100.7,251,97.6z M238.7,85.2l3-3l3,3l-3,3.1
				C238.7,85.2,241.7,88.2,238.7,85.2z M226.4,72.7l3-3.1l3,3.1l-3,3C226.4,72.7,229.4,75.8,226.4,72.7z"/>
		</g>
		<g>
			
				<radialGradient id="SVGID_3_" cx="120.6993" cy="308.7166" r="80.6885" gradientTransform="matrix(0.7931 0 0 0.8008 -4.0053 -11.829)" gradientUnits="userSpaceOnUse">
				<stop  offset="0.1584" style="stop-color:#FFFFFF"/>
				<stop  offset="1" style="stop-color:#D6D6D6"/>
			</radialGradient>
			<polygon class="st6" points="154.7,300 27.7,171.8 28.7,170.8 155.7,299 			"/>
		</g>
		<g>
			
				<radialGradient id="SVGID_4_" cx="288.4825" cy="190.222" r="124.1568" gradientTransform="matrix(0.7931 0 0 0.8008 -4.0053 -11.829)" gradientUnits="userSpaceOnUse">
				<stop  offset="0.1584" style="stop-color:#FFFFFF"/>
				<stop  offset="1" style="stop-color:#D6D6D6"/>
			</radialGradient>
			<polygon class="st7" points="193.3,262 192.3,261 292.8,159.5 154.7,20 155.7,19 294.9,159.5 			"/>
		</g>
		<g>
			<path class="st0" d="M16.5,156.5l3-3l3,3l-3,3.1C16.5,156.5,19.5,159.6,16.5,156.5z M28.8,144.1l3-3.1l3,3.1l-3,3
				C28.8,144.1,31.8,147.1,28.8,144.1z M41.2,131.6l3-3l3,3l-3,3C41.2,131.6,44.2,134.7,41.2,131.6z M53.5,119.2l3-3l3,3l-3,3.1
				C53.5,119.2,56.5,122.2,53.5,119.2z M65.8,106.7l3-3.1l3,3.1l-3,3C65.8,106.7,68.8,109.7,65.8,106.7z M78.2,94.2l3-3l3,3l-3,3
				C78.2,94.2,81.2,97.3,78.2,94.2z M90.5,81.8l3-3.1l3,3.1l-3,3C90.5,81.8,93.5,84.8,90.5,81.8z M102.8,69.3l3-3l3,3l-3,3
				C102.8,69.3,105.9,72.4,102.8,69.3z M115.2,56.9l3-3l3,3l-3,3.1C115.2,56.9,118.2,59.9,115.2,56.9z M127.5,44.4l3-3.1l3,3.1l-3,3
				C127.5,44.4,130.5,47.5,127.5,44.4z M139.8,32l3-3l3,3l-3,3C139.8,32,142.9,35,139.8,32z M152.2,19.5l3-3l3,3l-3,3.1
				C152.2,19.5,155.2,22.5,152.2,19.5z"/>
		</g>
		<g>
			<polygon class="st0" points="158.4,271.2 51.7,163.4 52.7,162.4 158.4,269.1 264.1,162.4 265.1,163.4 			"/>
		</g>
	</g>
</g>
</svg>
