<?xml version="1.0" encoding="iso-8859-1"?>
<!-- Generator: Adobe Illustrator 19.0.0, SVG Export Plug-In . SVG Version: 6.00 Build 0)  -->
<svg version="1.1" id="Layer_1" xmlns="http://www.w3.org/2000/svg" xmlns:xlink="http://www.w3.org/1999/xlink" x="0px" y="0px"
	 viewBox="0 0 511.999 511.999" style="enable-background:new 0 0 511.999 511.999;" xml:space="preserve">
<g>
	<g>
		<path d="M424.993,245.249c-9.678-58.885-41.575-117.882-89.815-166.123c-18.574-18.574-38.878-34.848-60.35-48.372
			c-3.55-2.236-8.067-2.235-11.615,0.002c-21.498,13.551-41.802,29.825-60.347,48.37c-48.241,48.242-80.138,107.239-89.813,166.123
			c-9.895,60.213,4.5,113.214,40.531,149.237c17.303,17.303,38.572,29.663,63.212,36.736c12.801,3.677,26.382,5.844,40.494,6.527
			v63.356c0,6.017,4.877,10.894,10.894,10.894c6.017,0,10.894-4.877,10.894-10.894v-63.478c13.651-0.791,27.623-2.877,41.677-6.27
			c0.149-0.036,0.296-0.075,0.444-0.118c24.674-7.072,45.964-19.437,63.281-36.753C420.5,358.461,434.89,305.461,424.993,245.249z
			 M369.071,379.08c-14.62,14.62-32.673,25.101-53.659,31.152c-12.28,2.953-24.457,4.811-36.337,5.576v-46.794l70.693-70.693
			c4.254-4.254,4.254-11.152,0-15.407c-4.254-4.254-11.152-4.254-15.407,0L279.075,338.2v-81.769l33.751-33.751
			c4.254-4.254,4.254-11.152,0-15.407c-4.254-4.254-11.152-4.254-15.407,0l-18.345,18.345v-77.221
			c0-6.017-4.877-10.894-10.894-10.894c-6.016,0-10.894,4.877-10.894,10.894v77.221l-18.345-18.345
			c-4.254-4.254-11.152-4.254-15.407,0c-4.254,4.254-4.254,11.152,0,15.407l33.751,33.751V338.2L202,282.914
			c-4.254-4.254-11.152-4.254-15.407,0c-4.254,4.254-4.254,11.152,0,15.407l70.693,70.693v46.938
			c-12.057-0.657-23.611-2.549-34.48-5.671c-21.051-6.043-39.158-16.54-53.82-31.203c-30.932-30.925-43.163-77.199-34.437-130.297
			c8.943-54.423,38.676-109.204,83.722-154.249c15.717-15.718,32.765-29.686,50.752-41.593
			c17.962,11.885,35.008,25.853,50.748,41.593c45.045,45.044,74.778,99.825,83.723,154.25
			C412.221,301.88,399.997,348.154,369.071,379.08z"/>
	</g>
</g>
<g>
	<g>
		<path d="M246.781,4.81c-3.361-4.99-10.13-6.311-15.12-2.951c-6.239,4.201-12.463,8.669-18.5,13.28
			c-4.781,3.652-5.696,10.488-2.045,15.27c2.143,2.805,5.385,4.28,8.664,4.28c2.306,0,4.63-0.729,6.605-2.236
			c5.694-4.35,11.564-8.562,17.445-12.522C248.821,16.57,250.142,9.8,246.781,4.81z"/>
	</g>
</g>
<g>
	<g>
		<path d="M188.967,49.821c-4.254-4.254-11.152-4.254-15.407,0C132.682,90.7,101.903,139.048,84.551,189.64
			c-1.952,5.691,1.08,11.887,6.77,13.838c1.171,0.402,2.363,0.593,3.535,0.593c4.525,0,8.754-2.842,10.303-7.363
			c16.282-47.47,45.261-92.935,83.807-131.48C193.221,60.973,193.221,54.075,188.967,49.821z"/>
	</g>
</g>
<g>
</g>
<g>
</g>
<g>
</g>
<g>
</g>
<g>
</g>
<g>
</g>
<g>
</g>
<g>
</g>
<g>
</g>
<g>
</g>
<g>
</g>
<g>
</g>
<g>
</g>
<g>
</g>
<g>
</g>
</svg>
