<?xml version='1.0' encoding='iso-8859-1'?>
<svg version="1.1" xmlns="http://www.w3.org/2000/svg" viewBox="0 0 376.91 376.91" xmlns:xlink="http://www.w3.org/1999/xlink" enable-background="new 0 0 376.91 376.91">
  <g>
    <g>
      <g>
        <path d="m136.805,151.715v-34.201-17.101c0-47.711-34.406-72.677-68.402-72.677s-68.403,24.966-68.403,72.677v17.101 34.201c0,3.933 2.702,7.097 6.327,8.106l5.712,88.29c2.565,39.177 32.525,57.013 59.288,57.013 25.753,0 54.585-17.22 57.03-55.03 1.3-19.956 4.754-74.798 5.866-92.275 1.59-1.556 2.582-3.71 2.582-6.104zm-119.704-25.651h102.604v17.101h-102.604v-17.101zm51.301-81.228c24.71,0 51.302,17.391 51.302,55.577v8.55h-102.603v-8.55c0-38.186 26.591-55.577 51.301-55.577zm42.906,204.147c-1.761,26.951-21.342,39.024-39.964,39.024-19.05,0-40.374-12.843-42.221-41.024l-5.626-86.717h93.455c-1.301,20.502-4.43,70.009-5.644,88.717z"/>
        <path d="m370.382,154.434c-11.218-27.104-38.647-46.035-66.658-46.035-18.263,0-35.603,7.678-50.122,22.179l-43.863,43.863c-0.804,0.804-1.436,1.761-1.847,2.804-0.855,2.086-0.855,4.412 0,6.498 0.188,0.462 0.547,0.821 0.821,1.248l-57.475,65.529c-16.331,18.64-20.384,42.358-10.825,63.443 9.542,21.051 30.849,35.21 53.046,35.21 14.057,0 27.703-5.472 39.502-15.835l66.077-58.022c1.351,0.872 2.856,1.471 4.497,1.471 2.274,0 8.037-1.368 9.628-2.975l24.043-22.983c-0.154-0.513 1.077-1.06 1.077-1.077l19.307-19.375c21.769-21.718 23.787-49.42 12.792-75.943zm-130.478,14.022l75.653,75.653-12.039,12.039-37.826-37.827-37.826-37.826 12.038-12.039zm-18.246,152.024c-8.619,7.576-18.383,11.594-28.216,11.594-15.596,0-30.661-10.124-37.467-25.155s-3.865-31.482 8.106-45.111l56.5-64.435 66.06,66.06-64.983,57.047zm105.989-88.461l-75.653-75.653 13.698-13.698c11.235-11.235 24.385-17.169 38.032-17.169 21.29,0 42.221,14.587 50.874,35.484 8.208,19.82 3.386,40.716-13.236,57.338l-13.715,13.698z"/>
      </g>
    </g>
  </g>
</svg>
