<?xml version="1.0" encoding="utf-8"?>
<!-- Generator: Adobe Illustrator 21.0.2, SVG Export Plug-In . SVG Version: 6.00 Build 0)  -->
<svg version="1.1" id="Слой_1" xmlns="http://www.w3.org/2000/svg" xmlns:xlink="http://www.w3.org/1999/xlink" x="0px" y="0px"
	 viewBox="0 0 300 300" style="enable-background:new 0 0 300 300;" xml:space="preserve">
<g>
	<path d="M96.1,185.8c0,5.9-5.3,10.6-11.9,10.6c-6.6,0-11.9-4.8-11.9-10.6c0-5.9,5.3-10.6,11.9-10.6
		C90.7,175.2,96.1,179.9,96.1,185.8L96.1,185.8z M96.1,185.8"/>
	<path d="M227.7,185.8c0,5.9-5.3,10.6-11.9,10.6c-6.6,0-11.9-4.8-11.9-10.6c0-5.9,5.3-10.6,11.9-10.6
		C222.4,175.2,227.7,179.9,227.7,185.8L227.7,185.8z M227.7,185.8"/>
	<path d="M84.2,151.7c-6.5,0-12.6,2.3-17.2,6.4c-2.5,2.2-2.5,5.8,0,8c2.5,2.2,6.5,2.2,9,0c2.2-2,5.1-3,8.2-3c3.1,0,6,1.1,8.2,3
		c1.2,1.1,2.9,1.7,4.5,1.7c1.6,0,3.3-0.6,4.5-1.7c2.5-2.2,2.5-5.8,0-8C96.8,154,90.7,151.7,84.2,151.7L84.2,151.7z M84.2,151.7"/>
	<path d="M198.6,158.1c-2.5,2.2-2.5,5.8,0,8c2.5,2.2,6.5,2.2,9,0c4.5-4,11.9-4,16.4,0c1.2,1.1,2.9,1.7,4.5,1.7
		c1.6,0,3.3-0.6,4.5-1.7c2.5-2.2,2.5-5.8,0-8C223.5,149.6,208.1,149.6,198.6,158.1L198.6,158.1z M198.6,158.1"/>
	<g>
		<path d="M162.2,230.9c-3.3,2.9-7.6,4.5-12.2,4.5c-4.6,0-9-1.6-12.2-4.5c-2.5-2.2-6.5-2.2-9,0c-2.5,2.2-2.5,5.8,0,8
			c5.7,5.1,13.2,7.9,21.2,7.9c8,0,15.6-2.8,21.2-7.9c2.5-2.2,2.5-5.8,0-8C168.8,228.7,164.7,228.7,162.2,230.9L162.2,230.9z
			 M162.2,230.9"/>
		<path d="M300,180.3c0-15.4-12.5-28.3-28.9-31v-95c0-12.3-6.9-23.7-18.4-30.5c-10.8-6.4-24.2-7.8-36.3-4L176.5,7.7
			c-30.7-9.3-63-10.2-93.4-2.8C43.3,14.8,20.5,35.5,17,65c-3.1,3.7-5.6,7.8-7.3,12.2l-3.1,8.2c-1.7,4.4,0.2,9,4.6,11.5
			c4.4,2.5,9.8,2,13.6-1.2c1.3-1.1,2.7-2,4.1-2.8v56.5C12.5,152.1,0,164.9,0,180.3c0,16,13.5,29.3,30.9,31.2
			c4.4,21.5,15.8,41.4,33.4,57.3C87.2,289.6,117.6,301,150,301h0c32.3,0,62.7-11.3,85.6-31.7c17.9-16,29.5-36,33.7-57.8
			C286.6,209.5,300,196.3,300,180.3L300,180.3z M245.7,33.3c8.1,4.8,12.7,12.5,12.7,21.1v74.3c-19.7-2.7-34.9-18-34.9-36.4L223,29.9
			C230.7,28.1,238.8,29.3,245.7,33.3L245.7,33.3z M20.5,84.1l1.2-3.3c3.2-8.6,10.4-15.5,19.7-19.1c9.3-3.6,19.9-3.4,29.1,0.4
			c19.2,8,42.5,3.7,56.6-10.5l1.6-1.6c2.3-2.3,2.1-5.9-0.5-8c-2.6-2.1-6.6-1.9-9,0.5l-1.6,1.6C107.2,54.7,90.1,57.9,75.9,52
			c-12.4-5.2-26.8-5.4-39.4-0.6c-1.1,0.4-2.3,0.9-3.4,1.4c7.4-17.6,25.3-30,53.4-36.9c27.9-6.9,57.6-6,85.9,2.6L210.3,30l0.5,29.3
			c-16.9,20.5-41.4,34.3-69.4,39.1c-28.7,4.9-57.9-0.3-82.4-14.5C47,76.9,31.9,77.2,20.5,84.1L20.5,84.1z M12.7,180.3
			c0-9.1,6.8-16.9,16.2-19.3v30.8c0,2.7,0.1,5.3,0.3,7.9C19.7,197.4,12.7,189.6,12.7,180.3L12.7,180.3z M226.6,261.3
			c-20.5,18.3-47.7,28.3-76.6,28.3h0c-29,0-56.2-10.2-76.7-28.8c-20.4-18.5-31.7-43-31.7-69.1V90.2c3.6,0.2,7.2,1.3,10.4,3.2
			c27.2,15.9,59.8,21.6,91.7,16.2c25.9-4.4,49.2-15.8,67.1-32.6v15.4c0,24.6,20.8,45,47.6,47.8v52.7
			C258.4,218.7,247.1,243,226.6,261.3L226.6,261.3z M270.9,199.7c0.2-2.3,0.2-4.5,0.2-6.8V161c9.3,2.5,16.2,10.2,16.2,19.3
			C287.3,189.5,280.3,197.3,270.9,199.7L270.9,199.7z M270.9,199.7"/>
	</g>
</g>
</svg>
