<?xml version="1.0" encoding="iso-8859-1"?>
<!-- Generator: Adobe Illustrator 16.0.0, SVG Export Plug-In . SVG Version: 6.00 Build 0)  -->
<!DOCTYPE svg PUBLIC "-//W3C//DTD SVG 1.1//EN" "http://www.w3.org/Graphics/SVG/1.1/DTD/svg11.dtd">
<svg version="1.1" id="Capa_1" xmlns="http://www.w3.org/2000/svg" xmlns:xlink="http://www.w3.org/1999/xlink" x="0px" y="0px"
	 width="192.786px" height="192.786px" viewBox="0 0 192.786 192.786" style="enable-background:new 0 0 192.786 192.786;"
	 xml:space="preserve">
<g>
	<path d="M42.451,2.213C6.119,6.663-5.252,48.91,2.138,79.525c-1.692,9.951-0.539,19.992,8.004,24.568
		c1.385,0.741,2.725,1.066,4.03,1.093c-8.606,28.583,9.088,86.239,44.829,83.108c35.931-3.146,22.381-64.177,20.669-88.913
		c9.606-1.994,9.76-18.75,8.263-25.796c-0.165-0.779-0.385-1.545-0.596-2.314c1.087-0.234,2.027-0.981,2.312-2.407
		C95.771,38.273,78.831-2.243,42.451,2.213z M9.006,91.304c-2.154-8.489,2.26-18.932,5.792-26.399
		c5.504-11.638,16.258-26.854,29.225-32.897c-4.834,6.1-7.166,15.194-9.457,22.005c-4.491,13.354-7.86,27.598-14.811,39.95
		C15.737,101.102,11.003,99.171,9.006,91.304z M63.575,177.83c-28.894,18.861-47.499-52.876-46.384-73.185
		c13.145-5.034,22.103-43.535,29.117-62.581c4.47,10.785,8.207,21.87,12.845,32.592c2.145,4.957,6.084,16.501,11.989,21.961
		C71.243,117.481,84.638,164.081,63.575,177.83z M81.872,86.592c-1.613,7.745-4.975,7.127-8.714,1.612
		C62.059,71.835,60.709,50.156,49.942,33.952c0.331-0.531,0.659-1.009,0.982-1.376c0.876-0.996,0.933-2.08,0.523-2.932
		c0.019-0.003,0.037-0.008,0.055-0.012c8.197,10.931,17.151,21.139,24.317,32.826C80.224,69.643,83.646,78.077,81.872,86.592z
		 M54.985,26.911c-1.057-1.109-2.72-0.599-3.483,0.432C32.652,23.207,17.453,44.101,9.6,58.249c-0.701,1.264-1.439,2.75-2.173,4.369
		c1.119-22.958,8.925-46.082,34.094-52.023c11.101-2.62,22.097,1.949,29.72,9.939c10.202,10.694,10.96,25.339,11.32,39.314
		C75.604,47.418,64.105,36.484,54.985,26.911z"/>
	<path d="M102.624,69.303c0.188,1.442,1.076,2.251,2.145,2.558c-0.263,0.752-0.533,1.502-0.752,2.268
		c-1.969,6.929-2.947,23.656,6.503,26.296c-3.381,24.564-21.021,84.54,14.614,90.106c35.448,5.538,56.997-50.791,50.341-79.89
		c1.305,0.062,2.663-0.171,4.096-0.818c8.833-3.989,10.662-13.927,9.646-23.97c9.441-30.047,0.951-72.965-34.998-79.86
		C118.222-0.911,98.584,38.368,102.624,69.303z M170.664,99.067c-6.101-12.794-8.5-27.233-12.078-40.86
		c-1.825-6.95-3.538-16.181-7.949-22.593c12.529,6.905,22.23,22.813,26.936,34.796c3.019,7.688,6.718,18.406,3.995,26.73
		C179.044,104.854,174.19,106.46,170.664,99.067z M119.214,98.244c6.26-5.048,10.971-16.3,13.445-21.101
		c5.352-10.384,9.83-21.192,15.018-31.65c5.711,19.477,12.049,58.494,24.822,64.404c-0.26,20.339-23.669,90.655-51.223,69.884
		C101.191,164.642,117.704,119.053,119.214,98.244z M116.856,63.846c7.938-11.177,17.562-20.757,26.479-31.109
		c0.019,0.006,0.036,0.012,0.054,0.016c-0.467,0.823-0.482,1.908,0.323,2.961c0.298,0.388,0.593,0.887,0.887,1.438
		c-11.837,15.44-14.648,36.979-26.827,52.56c-4.104,5.25-7.499,5.639-8.586-2.197C107.991,78.9,111.977,70.717,116.856,63.846z
		 M110.306,60.787c1.304-13.919,3.05-28.479,13.95-38.459c8.146-7.457,19.425-11.273,30.323-7.909
		c24.71,7.628,30.936,31.227,30.501,54.207c-0.622-1.664-1.258-3.197-1.873-4.505c-6.879-14.647-20.631-36.519-39.718-33.666
		c-0.692-1.081-2.317-1.702-3.446-0.667C130.298,38.723,118.086,48.854,110.306,60.787z"/>
</g>
<g>
</g>
<g>
</g>
<g>
</g>
<g>
</g>
<g>
</g>
<g>
</g>
<g>
</g>
<g>
</g>
<g>
</g>
<g>
</g>
<g>
</g>
<g>
</g>
<g>
</g>
<g>
</g>
<g>
</g>
</svg>
