<?xml version="1.0" encoding="iso-8859-1"?>
<!-- Generator: Adobe Illustrator 19.0.0, SVG Export Plug-In . SVG Version: 6.00 Build 0)  -->
<svg version="1.1" id="Capa_1" xmlns="http://www.w3.org/2000/svg" xmlns:xlink="http://www.w3.org/1999/xlink" x="0px" y="0px"
	 viewBox="0 0 512.001 512.001" style="enable-background:new 0 0 512.001 512.001;" xml:space="preserve">
<g>
	<g>
		<path d="M159.737,1.98C107.229,12.131,70.373,29.215,47.063,54.207C4.107,100.265,17.639,161.333,32.504,220.01
			c13.729,54.168,17.981,128.424,16.619,184.412l0.032,0.031c3.702,58.331,20.97,81.875,105.732,81.875
			c49.679,0,62.729-44.231,62.729-93.719c0-42.722-11.081-89.804,0.788-167.054c0.706-4.62-2.855-8.707-7.463-8.707
			c-3.82,0-6.98,2.847-7.481,6.532c-3.797,24.752-5.644,49.164-5.644,74.626c0,68.857,24.581,173.221-42.93,173.221
			c-67.31,0-84.29-13.426-89.317-52.341c42.225,32.449,56.855,13.55,56.955,13.555c3.281-3.279,6.824-9.409,5.077-19.987
			c-2.967-17.96-20.158-42.291-40.899-60.654c21.929,1.337,54.407-1.548,71.762-13.947c8.758-6.258,10.597-13.104,10.597-17.744
			c0-4.76-1.904-11.758-10.97-18.076c-14.852-10.346-44.008-15.198-71.316-13.572c20.522-18.098,37.504-42.03,40.741-60.232
			c1.93-10.855-1.65-17.116-4.991-20.456c-14.455-14.455-46.24,1.799-71.089,25.781C31.342,149.816-6.565,49.511,162.653,16.797
			c10.606-2.123,20.294-2.313,28.691-0.565c28.319,5.893,41.958,35.144,41.958,63.482c0,30.1-13.935,64.882-24.318,113.615
			c-0.869,4.078,1.733,8.089,5.811,8.958c4.068,0.868,8.088-1.733,8.957-5.811c10.397-48.792,24.651-84.064,24.651-116.762
			C248.402,28.657,215.787-9.243,159.737,1.98z M111.85,421.762l-0.001,0.002c-3.756,3.755-23.854-1.539-47.956-24.092
			c-0.165-3.65-0.324-8.034-0.46-13.652c2.352,1.928,3.989,5.401,8.522,5.401c6.664,0,10.092-8.129,5.336-12.886l-14.288-14.293
			c-0.065-3.514-0.124-6.64-0.194-10.021C97.401,375.47,118.661,414.955,111.85,421.762z M149.46,314.424
			c1.681,1.171,4.502,3.467,4.502,5.684c0,1.527-1.558,3.516-4.276,5.456c-15.052,10.755-56.893,15.671-87.38,7.204
			c-0.052-1.698-0.109-3.402-0.168-5.111h35.397c4.168,0,7.55-3.383,7.55-7.55s-3.383-7.55-7.55-7.55H61.499
			c-0.082-1.603-0.164-3.205-0.256-4.811C91.195,299.022,134.082,303.712,149.46,314.424z M94.758,221.002
			c10.743-4.791,15.878-3.761,17.092-2.547c7.071,7.065-15.897,48.952-51.856,71.411c-0.229-2.717-0.48-5.427-0.749-8.13
			l18.045-18.054c2.95-2.95,2.95-7.722,0-10.671s-7.722-2.95-10.671,0l-9.538,9.533c-0.542-3.926-1.135-7.686-1.797-11.315
			C66.053,239.566,80.374,227.416,94.758,221.002z"/>
	</g>
</g>
<g>
	<g>
		<path d="M427.087,51.913c-29.677-15.374-74.213-26.294-94.228-26.294c-43.6,0-63.837,33.977-68.238,65.774
			c-3.695,26.643,4.424,55.131,11.953,83.262c14.301,53.437,22.593,93.604,22.593,149.024c0.001,28.517-2.143,44.56-3.615,66.262
			c-0.283,4.16,2.861,7.762,7.022,8.045c4.166,0.283,7.762-2.867,8.044-7.022c1.418-20.856,3.651-37.835,3.651-67.285
			c0-56.938-8.503-98.368-23.106-152.929c-6.641-24.811-12.376-46.239-12.376-65.365c0-33.787,18.045-64.665,54.073-64.665
			c17.158,0,59.397,10.156,87.281,24.602c3.703,1.917,8.258,0.471,10.177-3.232C432.235,58.387,430.79,53.831,427.087,51.913z"/>
	</g>
</g>
<g>
	<g>
		<path d="M453.654,69.218c-3.219-2.651-7.978-2.193-10.629,1.027c-2.652,3.219-2.193,7.976,1.026,10.629
			c54.479,44.884,32.547,111.856,16.6,178.354c-24.848-23.983-56.63-40.238-71.087-25.783c-3.342,3.341-6.922,9.602-4.992,20.457
			c3.236,18.203,20.219,42.134,40.741,60.233c-27.308-1.627-56.465,3.225-71.316,13.57c-9.069,6.317-10.971,13.317-10.971,18.076
			c0,27.265,54.782,33.373,82.361,31.692c-20.742,18.363-37.932,42.694-40.899,60.654c-1.747,10.58,1.795,16.709,5.076,19.987
			c0,0,0.002,0.001,0.002,0.002c2.863,2.862,7.409,5.465,14.475,5.465c4.877,0,10.954-1.24,18.506-4.49
			c7.605-3.274,15.762-8.231,23.861-14.443c-1.822,13.568-5.049,24.1-10.992,31.727c-14.965,19.201-51.883,20.526-78.214,20.526
			c-20.173,0-47.056-7.913-47.618-76.33c-0.033-4.048-3.282-7.488-7.613-7.488c-4.17,0.034-7.523,3.442-7.488,7.613
			c0.403,48.959,14.167,91.307,62.719,91.307c7.425,0,14.422-0.176,20.802-0.525c36.037-1.989,56.769-9.711,69.323-25.819
			c10.275-13.183,14.05-31.33,15.596-55.517l0.046-0.044c-0.109-26.833,1.199-120.673,12.216-166.712
			C491.714,194.177,515.727,120.362,453.654,69.218z M449.087,387.912l-14.288,14.295c-4.754,4.754-1.332,12.886,5.336,12.886
			c4.529,0,6.163-3.467,8.522-5.401c-0.134,5.58-0.278,9.508-0.476,13.666c-24.094,22.54-44.187,27.831-47.938,24.078l-0.002-0.002
			c-6.925-6.919,14.756-46.5,49.04-69.543C449.219,380.806,449.14,385.025,449.087,387.912z M450.585,338.23h-36.032
			c-4.168,0-7.55,3.383-7.55,7.55s3.383,7.55,7.55,7.55h35.395c-0.059,1.707-0.119,3.413-0.17,5.112
			c-30.488,8.464-72.326,3.549-87.377-7.205c-5.78-4.128-5.602-7.082,0.227-11.141c9.826-6.845,30.878-11.231,52.616-11.231
			c12.28,0,24.781,1.403,35.593,4.552C450.746,335.023,450.665,336.626,450.585,338.23z M455.007,288.215l-9.539-9.533
			c-2.95-2.95-7.722-2.95-10.671,0s-2.95,7.722,0,10.671l18.033,18.04c-0.27,2.706-0.518,5.419-0.747,8.136
			c-35.686-22.295-58.957-64.297-51.842-71.405c0.525-0.524,1.782-1.015,3.91-1.015c2.792,0,7.082,0.845,13.18,3.564
			c14.45,6.443,28.791,18.656,39.474,30.227C456.142,280.526,455.55,284.289,455.007,288.215z"/>
	</g>
</g>
<g>
	<g>
		<path d="M197.361,149.491c-8.899-27.407-27.924-45.146-56.589-52.803V75.615c0-4.17-3.38-7.55-7.55-7.55
			c-4.171,0-7.55,3.381-7.55,7.55v20.908c-32.344,7.315-52.713,20.869-63.828,42.373c-10.321,19.966-11.161,44.382-11.161,71.917
			c0,4.17,3.38,7.55,7.55,7.55s7.55-3.381,7.55-7.55c0-26.433,0.698-48.004,9.474-64.982c9.354-18.096,27.77-29.388,57.894-35.469
			c60.29,13.612,55.609,74.156,53.841,97.063c-0.225,2.906-0.402,5.204-0.402,6.911c0,4.17,3.38,7.55,7.55,7.55
			c4.171,0,7.55-3.381,7.55-7.55C201.691,207.177,206.546,177.778,197.361,149.491z"/>
	</g>
</g>
<g>
	<g>
		<path d="M451.545,165.07c-11.116-21.504-31.485-35.058-63.828-42.373V101.79c0-4.17-3.38-7.55-7.55-7.55s-7.55,3.381-7.55,7.55
			v21.073c-28.665,7.658-47.689,25.397-56.589,52.803c-9.189,28.302-4.33,57.683-4.33,64.845c0,4.17,3.38,7.55,7.55,7.55
			c4.171,0,7.55-3.381,7.55-7.55c0-14.457-14.279-88.684,53.439-103.973c30.123,6.081,48.539,17.373,57.894,35.469
			c8.777,16.979,9.474,38.548,9.474,64.982c0,4.17,3.38,7.55,7.55,7.55s7.55-3.381,7.55-7.55
			C462.706,209.454,461.866,185.037,451.545,165.07z"/>
	</g>
</g>
<g>
</g>
<g>
</g>
<g>
</g>
<g>
</g>
<g>
</g>
<g>
</g>
<g>
</g>
<g>
</g>
<g>
</g>
<g>
</g>
<g>
</g>
<g>
</g>
<g>
</g>
<g>
</g>
<g>
</g>
</svg>
