<?xml version="1.0" encoding="iso-8859-1"?>
<!-- Generator: Adobe Illustrator 19.0.0, SVG Export Plug-In . SVG Version: 6.00 Build 0)  -->
<svg version="1.1" id="Layer_1" xmlns="http://www.w3.org/2000/svg" xmlns:xlink="http://www.w3.org/1999/xlink" x="0px" y="0px"
	 viewBox="0 0 512 512" style="enable-background:new 0 0 512 512;" xml:space="preserve">
<g>
	<g>
		<path d="M465.225,80.285c0,0-74.639,6.039-150.387,94.748c-40.234,47.124-86.718,131.527-141.716,158.184
			C118.107,359.889,0,346.967,0,370.013c0,22.937,106.357,61.702,205.073,61.702c0.531,0,1.078,0,1.609,0
			c99.186-0.438,131.123-75.326,172.356-106.889c8.781-6.703,19.156-12.531,30.015-17.531l6.922,124.42h63.998l10.672-149.324
			C503.332,259.242,542.848,166.174,465.225,80.285z M460.115,410.387h-23.953l-6.219-111.622
			c14.281-5.188,28.125-9.047,38.969-11.703L460.115,410.387z M490.488,203.845c-1.25,26.281-9.109,47.929-14.327,59.655
			c-22.874,4.891-76.2,18.469-110.075,44.389c-12.484,9.547-23.469,21.734-35.093,34.641c-14.89,16.516-30.28,33.593-50.046,46.498
			c-10.312,6.75-20.858,11.75-32.203,15.25c-13.062,4.031-26.858,6.031-42.14,6.094c-0.516,0-1.031,0.016-1.531,0.016
			c-38.546,0-83.154-6.547-122.372-17.969c-16.343-4.766-31.046-10.155-42.687-15.655c8.594-0.969,18.453-1.766,28.75-2.609
			c38.827-3.188,82.841-6.797,113.653-21.749c43.765-21.203,80.42-71.779,112.779-116.381
			c12.688-17.491,24.656-34.015,35.858-47.131c15.827-18.539,32.858-34.672,50.577-47.937c14.125-10.57,28.733-19.367,43.436-26.141
			c13.406-6.187,24.469-9.554,31.875-11.343C480.957,133.574,492.238,167.284,490.488,203.845z"/>
	</g>
</g>
<g>
</g>
<g>
</g>
<g>
</g>
<g>
</g>
<g>
</g>
<g>
</g>
<g>
</g>
<g>
</g>
<g>
</g>
<g>
</g>
<g>
</g>
<g>
</g>
<g>
</g>
<g>
</g>
<g>
</g>
</svg>
