<?xml version="1.0" encoding="iso-8859-1"?>
<!-- Generator: Adobe Illustrator 19.0.0, SVG Export Plug-In . SVG Version: 6.00 Build 0)  -->
<svg version="1.1" id="Layer_1" xmlns="http://www.w3.org/2000/svg" xmlns:xlink="http://www.w3.org/1999/xlink" x="0px" y="0px"
	 viewBox="0 0 512 512" style="enable-background:new 0 0 512 512;" xml:space="preserve">
<g>
	<g>
		<path d="M494.706,187.707c-2.589-3.885-8.263-4.448-11.566-1.145c-0.3,0.299-30.376,29.861-74.843,29.861
			c-44.072,0-57.897-20.736-73.904-44.747c-2.358-3.536-7.358-4.395-10.761-1.844c-5.653,4.239-11.422,8.738-17.546,13.68
			c-3.319-4.441-6.106-8.472-8.052-11.619c-2.354-3.807-7.696-4.702-11.161-1.858c-3.375,2.77-6.638,5.492-9.832,8.17l-5.798-8.576
			c-2.325-3.438-6.996-4.341-10.434-2.016c-3.438,2.325-4.341,6.997-2.016,10.434l6.683,9.884c-3.391,2.849-6.74,5.64-10.07,8.368
			l-7.404-9.536c-2.545-3.277-7.265-3.872-10.544-1.327c-3.278,2.546-3.873,7.266-1.327,10.544l7.509,9.671
			c-3.608,2.767-7.221,5.44-10.867,7.969c-3.217,2.232-4.181,6.56-2.215,9.946l7.771,13.388
			c-25.634,16.074-52.09,24.398-87.212,27.591c-7.963,0.723-18.308,1.154-30.288,1.653c-2.055,0.086-3.959,0.295-5.657,1.595
			c-1.933,1.479-3.047,3.854-2.946,6.285c0.101,2.424,1.402,4.691,3.441,6.006c1.805,1.163,3.724,1.216,5.788,1.13
			c12.177-0.507,22.693-0.946,31.023-1.702c37.451-3.405,65.812-12.326,93.401-29.553l19.653,33.857
			c1.345,2.317,3.82,3.742,6.499,3.742c14.018,0,39.901,13.888,71.611,38.313c-17.984,7.551-40.037,15.403-64.034,16.807
			c-20.417,1.196-99.16,2.048-158.875-5.958c-13.637-1.829-39.228-7.069-63.192-14.254c-34.819-10.439-41.48-17.551-42.486-18.915
			c0.566-6.191,11.305-16.57,73.105-20.669c4.141-0.275,7.275-3.855,7.001-7.996c-0.275-4.14-3.862-7.282-7.995-7.001
			C44.062,270.748,0,277.285,0,304.094c0,8.038,5.878,18.081,49.478,31.629c25.714,7.991,53.926,13.841,69.258,15.897
			c40.334,5.408,89.188,6.845,123.578,6.845c17.445,0,31.176-0.371,38.173-0.78c32.893-1.926,61.445-14.527,82.293-23.728
			c7.249-3.199,14.502-6.29,21.973-8.94v27.171c0,4.15,3.365,7.515,7.515,7.515h104.203c4.15,0,7.515-3.365,7.515-7.515v-54.529
			c2.173-5.224,8.015-21.851,8.015-49.675C512,214.037,495.413,188.766,494.706,187.707z M384.75,309.114
			c-3.683,1.249-7.401,2.568-11.154,3.976c-4.305,1.615-9.154,3.713-14.29,5.975c-0.059-0.05-0.112-0.104-0.173-0.152
			c-25.012-19.867-58.925-43.316-82.615-46.104l-29.528-50.868c1.967-1.44,3.92-2.919,5.869-4.414l6.223,8.015
			c2.709,3.49,8.006,3.857,11.177,0.776c2.71-2.632,3.009-7.013,0.693-9.995l-6.326-8.147c3.087-2.526,6.186-5.105,9.312-7.727
			l8.566,12.669c2.475,3.659,7.733,4.376,11.102,1.509c2.877-2.448,3.463-6.8,1.348-9.927l-9.45-13.976
			c1.493-1.253,2.997-2.515,4.524-3.787c11.351,16.051,33.925,43.311,50.783,51.739c16.007,8.004,32,14.04,43.94,18.063V309.114z
			 M488.955,344.673h-89.174V320.06c40.03-12.254,74.52-15.392,89.174-16.193V344.673z M491.299,288.687
			c-12.961,0.499-48.578,3.023-91.518,15.668v-53.056c0-3.265-2.109-6.158-5.218-7.155c-11.728-3.764-29.407-10.101-47.03-18.912
			c-9.098-4.549-21.596-17.322-32.121-29.932c3.766-3.04,7.397-5.914,10.94-8.65c15.206,22.219,34.573,44.802,81.945,44.802
			c37.381,0,65.397-17.919,78.059-27.857c4.369,8.964,10.614,25.144,10.614,44.39C496.971,268.761,493.421,282.394,491.299,288.687z
			"/>
	</g>
</g>
<g>
	<g>
		<path d="M320.125,424.83c-13.535,0-24.548-11.012-24.548-24.548c0-4.15-3.365-7.515-7.515-7.515s-7.515,3.365-7.515,7.515
			c0,13.535-11.013,24.548-24.548,24.548c-4.15,0-7.515,3.365-7.515,7.515s3.365,7.515,7.515,7.515
			c13.535,0,24.548,11.013,24.548,24.548c0,4.15,3.365,7.515,7.515,7.515s7.515-3.365,7.515-7.515
			c0-13.535,11.013-24.548,24.548-24.548c4.15,0,7.515-3.365,7.515-7.515S324.275,424.83,320.125,424.83z M288.063,441.229
			c-2.472-3.409-5.475-6.412-8.884-8.884c3.409-2.472,6.412-5.475,8.884-8.884c2.472,3.409,5.475,6.412,8.884,8.884
			C293.537,434.816,290.534,437.819,288.063,441.229z"/>
	</g>
</g>
<g>
	<g>
		<path d="M111.718,176.344c-13.535,0-24.548-11.013-24.548-24.548c0-4.15-3.365-7.515-7.515-7.515s-7.515,3.365-7.515,7.515
			c0,13.535-11.013,24.548-24.548,24.548c-4.15,0-7.515,3.365-7.515,7.515c0,4.15,3.365,7.515,7.515,7.515
			c13.535,0,24.548,11.013,24.548,24.548c0,4.15,3.365,7.515,7.515,7.515s7.515-3.365,7.515-7.515
			c0-13.535,11.013-24.548,24.548-24.548c4.15,0,7.515-3.365,7.515-7.515C119.233,179.709,115.868,176.344,111.718,176.344z
			 M79.656,192.743c-2.472-3.409-5.475-6.413-8.884-8.884c3.41-2.472,6.412-5.475,8.884-8.884c2.472,3.409,5.475,6.413,8.884,8.884
			C85.131,186.331,82.127,189.334,79.656,192.743z"/>
	</g>
</g>
<g>
	<g>
		<path d="M448.376,80.157c-17.955,0-32.564-14.609-32.564-32.564c0-4.15-3.365-7.515-7.515-7.515c-4.15,0-7.515,3.365-7.515,7.515
			c0,17.955-14.609,32.564-32.564,32.564c-4.15,0-7.515,3.365-7.515,7.515c0,4.15,3.365,7.515,7.515,7.515
			c17.955,0,32.564,14.609,32.564,32.564c0,4.15,3.365,7.515,7.515,7.515c4.15,0,7.515-3.365,7.515-7.515
			c0-17.955,14.609-32.564,32.564-32.564c4.15,0,7.515-3.365,7.515-7.515C455.89,83.521,452.526,80.157,448.376,80.157z
			 M408.297,102.106c-3.715-5.785-8.65-10.72-14.435-14.435c5.785-3.715,10.72-8.65,14.435-14.435
			c3.715,5.785,8.65,10.72,14.435,14.435C416.947,91.386,412.013,96.321,408.297,102.106z"/>
	</g>
</g>
<g>
</g>
<g>
</g>
<g>
</g>
<g>
</g>
<g>
</g>
<g>
</g>
<g>
</g>
<g>
</g>
<g>
</g>
<g>
</g>
<g>
</g>
<g>
</g>
<g>
</g>
<g>
</g>
<g>
</g>
</svg>
