<?xml version="1.0" encoding="iso-8859-1"?>
<!-- Generator: Adobe Illustrator 19.0.0, SVG Export Plug-In . SVG Version: 6.00 Build 0)  -->
<svg version="1.1" id="Capa_1" xmlns="http://www.w3.org/2000/svg" xmlns:xlink="http://www.w3.org/1999/xlink" x="0px" y="0px"
	 viewBox="0 0 512 512" style="enable-background:new 0 0 512 512;" xml:space="preserve">
<g>
	<g>
		<path d="M418.036,0.001h-0.011h-58.837h-2.016c-4.087,0-7.964,1.556-10.917,4.382l-88.522,84.704c-0.971,0.931-2.493,0.93-3.466,0
			L165.743,4.381C162.79,1.556,158.914,0,154.826,0h-2.012H93.977h-0.015l0.001,0.001c-8.154,0.008-14.786,6.644-14.786,14.8
			v125.094c0,6.037-2.627,11.756-7.207,15.689l-3.644,3.13c-7.911,6.794-12.448,16.672-12.448,27.099v21.757
			c-0.001,4.153,3.366,7.521,7.52,7.521c4.153,0,7.521-3.367,7.521-7.521v-21.757c0-6.037,2.627-11.755,7.207-15.689l3.644-3.13
			c7.911-6.794,12.448-16.672,12.448-27.099V15.041h15.051l134.429,132.098c3.392,3.332,7.845,4.998,12.299,4.998
			s8.909-1.666,12.299-4.998L402.729,15.041h15.054v36.603c0,4.154,3.367,7.521,7.521,7.521s7.521-3.367,7.521-7.521V14.801
			C432.826,6.644,426.191,0.007,418.036,0.001z M257.753,136.41c-0.968,0.953-2.545,0.952-3.513,0L130.729,15.041h22.086
			c1.492,0,2.906,0.568,3.984,1.6l87.07,83.314c6.802,6.508,17.46,6.509,24.264,0l87.07-83.315c1.078-1.031,2.493-1.599,3.984-1.599
			h22.082L257.753,136.41z"/>
	</g>
</g>
<g>
	<g>
		<path d="M443.675,158.714l-3.644-3.13c-4.58-3.934-7.207-9.652-7.207-15.689V98.773c0-4.153-3.367-7.521-7.521-7.521
			s-7.521,3.367-7.521,7.521v41.122c0,10.428,4.537,20.305,12.448,27.099l3.644,3.13c4.58,3.934,7.207,9.652,7.207,15.689v269.433
			h-22.638H93.558H70.919V255.2c0-4.153-3.367-7.521-7.521-7.521c-4.154,0-7.521,3.367-7.521,7.521v202.553
			c0,6.911,5.623,12.534,12.534,12.534h17.625v29.179c0,6.911,5.623,12.534,12.534,12.534H413.43
			c6.911,0,12.534-5.623,12.534-12.534v-29.179h17.625c6.911,0,12.534-5.623,12.534-12.534v-271.94
			C456.123,175.386,451.586,165.508,443.675,158.714z M379.839,496.959V487.5c0-4.153-3.367-7.521-7.521-7.521
			c-4.153,0-7.521,3.367-7.521,7.521v9.458h-23.731V487.5c0-4.153-3.367-7.521-7.521-7.521c-4.153,0-7.521,3.367-7.521,7.521v9.458
			h-23.732V487.5c0-4.153-3.367-7.521-7.521-7.521s-7.521,3.367-7.521,7.521v9.458h-23.731V487.5c0-4.153-3.367-7.521-7.521-7.521
			s-7.521,3.367-7.521,7.521v9.458h-23.731V487.5c0-4.153-3.367-7.521-7.521-7.521s-7.521,3.367-7.521,7.521v9.458h-23.732V487.5
			c0-4.153-3.367-7.521-7.521-7.521c-4.153,0-7.521,3.367-7.521,7.521v9.458h-23.731V487.5c0-4.153-3.367-7.521-7.521-7.521
			c-4.153,0-7.521,3.367-7.521,7.521v9.458h-31.085v-26.672h309.846v26.673H379.839z"/>
	</g>
</g>
<g>
	<g>
		<path d="M390.589,165.117h-71.472c-6.171,0-11.191,5.021-11.191,11.191v39.486c0,16.607,8.907,32.131,23.244,40.512
			c7.304,4.27,15.493,6.405,23.683,6.405c8.189,0,16.379-2.135,23.683-6.405c14.337-8.381,23.244-23.905,23.244-40.512v-39.486
			C401.779,170.137,396.758,165.117,390.589,165.117z M370.943,243.321c-9.926,5.803-22.258,5.802-32.184,0
			c-9.742-5.695-15.794-16.243-15.794-27.527v-35.636h63.771v35.636h0.001C386.737,227.078,380.685,237.626,370.943,243.321z"/>
	</g>
</g>
<g>
</g>
<g>
</g>
<g>
</g>
<g>
</g>
<g>
</g>
<g>
</g>
<g>
</g>
<g>
</g>
<g>
</g>
<g>
</g>
<g>
</g>
<g>
</g>
<g>
</g>
<g>
</g>
<g>
</g>
</svg>
