<?xml version="1.0" encoding="iso-8859-1"?>
<!-- Generator: Adobe Illustrator 19.0.0, SVG Export Plug-In . SVG Version: 6.00 Build 0)  -->
<svg version="1.1" id="Capa_1" xmlns="http://www.w3.org/2000/svg" xmlns:xlink="http://www.w3.org/1999/xlink" x="0px" y="0px"
	 viewBox="0 0 512 512" style="enable-background:new 0 0 512 512;" xml:space="preserve">
<g>
	<g>
		<path d="M464.833,309.099c-7.625-3.427-14.521-6.604-20.834-9.521c-0.535-0.246-0.936-0.421-1.463-0.664l24.964-36.94
			c2.875-4.229,2.313-9.896-1.292-13.51l-10.667-10.667c-2-2-4.708-3.125-7.542-3.125h-42.667c-2.833,0-5.542,1.125-7.542,3.125
			l-10.667,10.667c-3.604,3.615-4.167,9.281-1.292,13.51l13.124,19.422c-8.501-2.424-16.767-4.057-25.624-4.057
			c-4.583,0-8.667,2.938-10.125,7.292c-9.313,27.927-38.208,35.375-53.854,35.375c0,0,0,0-0.021,0
			c-63.667-0.031-200-181.417-247.167-251.302c-1.771-2.635-4.646-4.344-7.813-4.646c-3.208-0.354-6.333,0.823-8.563,3.073
			C17.125,95.776,0,136.849,0,160.005c0,5.781,0.854,25.323,3.458,33.74c9.208,29.427,39.208,133.958,39.208,243.594
			c0,5.896,4.771,10.667,10.667,10.667h21.646c5.896,0,10.667-4.771,10.667-10.667V262.526
			c25.375,14.302,78.188,51.594,110.167,127.313c14.979,35.385,50.604,58.156,90.833,57.281c139.417-4,213.875-20.01,216.979-20.698
			c4.896-1.073,8.375-5.406,8.375-10.417V381.63C512,350.443,493.479,321.963,464.833,309.099z M409.75,256.005h33.833l1.313,1.323
			l-18.229,26.979l-18.229-26.979L409.75,256.005z M490.667,407.213c-23.125,4.219-93.521,15.396-204.646,18.573
			c-30.396,1.104-59-16.896-70.542-44.26C168.708,270.838,82.438,236.776,78.792,235.38c-3.25-1.271-6.958-0.833-9.854,1.167
			s-4.625,5.281-4.625,8.792v181.333h-0.396c-1.833-108.688-30.958-210.083-40.083-239.26c-1.333-4.292-2.5-20.115-2.5-27.406
			c0-16.094,11.563-44.875,30.813-68.177c37.354,53.979,178.125,249.469,257.188,249.51c0,0,0.021,0,0.042,0
			c26.375,0,57.333-13.146,71.021-42.281c15.125,1.646,30.125,8.563,54.667,19.896c6.375,2.938,13.333,6.146,21.021,9.604
			c21.021,9.438,34.583,30.271,34.583,53.073V407.213z"/>
	</g>
</g>
<g>
</g>
<g>
</g>
<g>
</g>
<g>
</g>
<g>
</g>
<g>
</g>
<g>
</g>
<g>
</g>
<g>
</g>
<g>
</g>
<g>
</g>
<g>
</g>
<g>
</g>
<g>
</g>
<g>
</g>
</svg>
