<?xml version="1.0" encoding="iso-8859-1"?>
<!-- Generator: Adobe Illustrator 19.0.0, SVG Export Plug-In . SVG Version: 6.00 Build 0)  -->
<svg version="1.1" id="Layer_1" xmlns="http://www.w3.org/2000/svg" xmlns:xlink="http://www.w3.org/1999/xlink" x="0px" y="0px"
	 viewBox="0 0 503.859 503.859" style="enable-background:new 0 0 503.859 503.859;" xml:space="preserve">
<g transform="translate(0 -1)">
	<g>
		<g>
			<path d="M503.764,302.758c-0.009-0.096-0.011-0.188-0.022-0.284c-0.007-0.059-0.018-0.116-0.025-0.175
				c-0.003-0.017-0.003-0.034-0.005-0.051c-0.002-0.015-0.006-0.028-0.008-0.043c-2.338-18.312-18.596-28.965-45.213-28.181
				c-2.018,0.059-4.123,0.001-6.306-0.17c-8.487-0.667-17.783-2.997-27.224-6.475c-4.034-1.487-7.815-3.081-11.223-4.67
				c-2.014-0.94-3.429-1.654-4.128-2.03l-58.376-23.4c5.21-10.615,2.343-23.775-7.453-31.161
				c-11.086-8.381-26.878-6.177-35.261,4.926l-3.369,4.461c-3.879-2.359-7.825-4.936-11.932-7.779
				c8.328-11.09,6.111-26.846-4.974-35.204c-10.393-7.857-24.922-6.411-33.605,2.948c-3.792-3.862-7.272-7.642-10.505-11.434
				c-28.853-33.815-51.576-52.467-69.324-49.365c-7.552,1.438-13.937,3.558-22.701,7.134c-0.013,0.005-1.562,0.659-3.878,1.631
				c-0.056,0.022-0.113,0.035-0.17,0.059c-0.438,0.184-2.186,0.922-4.087,1.724c-4.349,1.818-9.507,3.959-13.017,5.373
				c-0.72,0.285-1.436,0.565-2.15,0.842c-19.763,7.643-38.704,12.518-62.308,14.997c-0.439,0.046-0.864,0.133-1.28,0.244
				c-9.754,0.958-20.145,1.445-31.458,1.445c-4.636,0-8.393,3.758-8.393,8.393v80.073c-3.293,3.274-7.245,7.923-11.174,13.854
				c-17.624,26.601-20.396,57.839,0.679,90.684c-8.59,13.891-8.277,26.749-0.619,37.104c6.328,8.555,16.766,13.299,27.816,13.299
				h331.952c38.703,0,76.914-8.677,111.809-25.391l4.141-1.974c8.373-3.982,11.361-14.893,12.97-33.198
				c0.782-8.899,0.991-18.123,0.885-26.017C503.869,304.242,503.848,303.513,503.764,302.758z M333.666,219.514
				c3.706,2.794,4.441,8.059,1.648,11.753l-3.616,4.788c-0.012,0.016-0.026,0.031-0.039,0.047l-5.792,7.673l-5.731,7.588
				c-0.835,1.107-1.893,1.942-3.062,2.504c-2.74,1.313-6.099,1.094-8.689-0.863c-0.828-0.625-1.498-1.377-2.023-2.203
				c-1.82-2.871-1.787-6.681,0.379-9.55l15.174-20.092C324.712,217.455,329.972,216.721,333.666,219.514z M278.129,185.917
				c3.706,2.794,4.441,8.059,1.648,11.753l-5.147,6.816c-0.004,0.006-0.009,0.01-0.013,0.016l-1.52,2.014l-8.497,11.251
				c-0.821,1.09-1.86,1.914-3.007,2.476c-2.431,1.186-5.355,1.155-7.808-0.227c-0.32-0.181-0.635-0.377-0.936-0.605
				c-1.76-1.329-2.84-3.216-3.199-5.226c-0.395-2.221,0.091-4.594,1.559-6.538l10.961-14.511c0.009-0.012,0.016-0.025,0.026-0.037
				l4.183-5.538C269.175,183.859,274.435,183.124,278.129,185.917z M142.915,143.862v29.237c0,4.639-3.754,8.393-8.393,8.393H84.161
				c-4.639,0-8.393-3.754-8.393-8.393v-10.75c21.388-2.806,40.164-7.902,58.97-15.2c0.659-0.256,1.463-0.576,2.364-0.938
				C138.975,145.472,140.879,144.702,142.915,143.862z M28.187,259.709c2.479-3.741,5.135-7.051,7.777-9.877
				c1.538-1.646,2.682-2.725,3.233-3.194c1.876-1.595,2.957-3.933,2.957-6.395v-75.428c5.825-0.125,11.408-0.397,16.827-0.784v9.067
				c0,13.91,11.27,25.18,25.18,25.18h50.361c13.91,0,25.18-11.27,25.18-25.18v-36.255c7.15-2.873,12.312-4.556,17.188-5.49
				c9.649-1.694,30.336,15.287,54.471,43.573c3.972,4.66,8.255,9.27,12.962,13.985l-6.515,8.627
				c-6.271,8.308-6.614,19.244-1.734,27.733c0.008,0.015,0.016,0.03,0.024,0.045c0.074,0.129,0.156,0.254,0.233,0.381
				c1.611,2.68,3.745,5.105,6.392,7.106c0.576,0.435,1.168,0.834,1.768,1.212c8.902,5.622,20.224,5.004,28.416-1.084
				c1.884-1.398,3.605-3.078,5.091-5.044l5.096-6.754c4.068,2.829,8.003,5.424,11.887,7.826l-1.639,2.172
				c-7.06,9.35-6.605,22.029,0.349,30.801c0.01,0.013,0.02,0.027,0.03,0.04c0.032,0.04,0.066,0.078,0.098,0.118
				c1.271,1.579,2.752,3.03,4.442,4.308c8.663,6.549,20.193,6.64,28.819,1.081c0.005-0.003,0.011-0.006,0.016-0.01
				c0.11-0.071,0.217-0.149,0.327-0.222c2.285-1.526,4.36-3.449,6.109-5.765l5.769-7.643l1.893-2.506l60.902,24.361
				c1.007,0.528,2.545,1.294,4.542,2.226c3.812,1.778,8.019,3.552,12.516,5.209c10.771,3.968,21.494,6.656,31.714,7.459
				c2.768,0.217,5.475,0.292,8.115,0.214c17.211-0.507,25.544,3.974,27.656,11.469c-0.271,0.195-0.587,0.41-0.947,0.638
				c-4.691,2.982-13.474,6.445-26.164,10.525c-1.396,0.449-14.222,4.362-22.901,7.124c-0.05,0.016-0.103,0.033-0.153,0.049
				c-0.293,0.093-0.576,0.184-0.859,0.274c-0.083,0.026-0.169,0.054-0.251,0.08c-0.104,0.034-0.203,0.065-0.306,0.098
				c-1.677,0.538-3.139,1.016-4.238,1.39c-0.698,0.237-1.252,0.433-1.626,0.578c-0.167,0.065-0.33,0.139-0.495,0.206
				c-2.396,0.976-4.629,2.272-6.66,3.857c-0.144,0.113-0.293,0.22-0.435,0.335c-0.01,0.008-0.02,0.017-0.03,0.026
				c-0.746,0.606-1.464,1.251-2.151,1.935c-0.805,0.805-1.714,1.477-2.694,2.005c-0.035,0.019-0.071,0.037-0.107,0.055
				c-0.277,0.146-0.56,0.279-0.847,0.401c-0.056,0.024-0.111,0.049-0.167,0.071c-0.636,0.26-1.296,0.46-1.97,0.602
				c-0.104,0.022-0.209,0.04-0.314,0.058c-0.23,0.042-0.461,0.076-0.694,0.104c-0.121,0.014-0.241,0.03-0.362,0.04
				c-0.273,0.024-0.547,0.037-0.822,0.041c-0.056,0.001-0.112,0.006-0.168,0.006h-59.334c-3.813-19.252-20.79-33.77-41.161-33.77
				H109.342c-20.371,0-37.348,14.518-41.161,33.77H29.445C11.755,305.699,13.882,281.301,28.187,259.709z M85.594,332.574
				c3.457-9.779,12.785-16.787,23.747-16.787h201.443c10.963,0,20.29,7.007,23.747,16.787H85.594z M486.219,329.491
				c-0.547,6.226-1.355,11.475-2.412,15.333c-0.517,1.888-1.068,3.337-1.581,4.257c-0.091,0.163-0.109,0.213-0.013,0.18l-3.62,1.726
				c-32.644,15.636-68.378,23.751-104.571,23.751H42.069c-5.956,0-11.319-2.437-14.32-6.494c-3.532-4.776-3.716-10.458,1.611-18.684
				h381.912c0.642,0,1.281-0.03,1.918-0.073c0.121-0.008,0.243-0.017,0.364-0.027c1.253-0.101,2.493-0.285,3.712-0.55
				c0.146-0.032,0.292-0.065,0.438-0.099c0.573-0.134,1.142-0.28,1.704-0.449c0.031-0.009,0.062-0.017,0.093-0.026
				c0.571-0.174,1.134-0.372,1.692-0.581c0.17-0.064,0.339-0.129,0.508-0.196c0.491-0.195,0.977-0.401,1.456-0.623
				c0.116-0.054,0.233-0.107,0.348-0.163c0.479-0.23,0.951-0.476,1.417-0.733c0.182-0.1,0.362-0.202,0.542-0.307
				c0.429-0.249,0.852-0.508,1.268-0.779c0.079-0.051,0.162-0.095,0.24-0.147c1.547-1.031,2.99-2.214,4.309-3.533
				c0.47-0.47,0.977-0.88,1.505-1.254c0.669-0.473,1.383-0.872,2.139-1.191c0.105-0.044,0.205-0.098,0.312-0.139
				c3.336-1.286,26.999-8.49,29.451-9.278c9.108-2.925,16.378-5.556,22.082-8.13C486.638,324.027,486.457,326.785,486.219,329.491z"
				/>
			<path d="M109.342,273.82h67.148c13.91,0,25.18-11.27,25.18-25.18s-11.27-25.18-25.18-25.18h-67.148
				c-13.91,0-25.18,11.27-25.18,25.18S95.431,273.82,109.342,273.82z M109.342,240.246h67.148c4.639,0,8.393,3.754,8.393,8.393
				s-3.754,8.393-8.393,8.393h-67.148c-4.639,0-8.393-3.754-8.393-8.393S104.702,240.246,109.342,240.246z"/>
		</g>
	</g>
</g>
<g>
</g>
<g>
</g>
<g>
</g>
<g>
</g>
<g>
</g>
<g>
</g>
<g>
</g>
<g>
</g>
<g>
</g>
<g>
</g>
<g>
</g>
<g>
</g>
<g>
</g>
<g>
</g>
<g>
</g>
</svg>
