<?xml version="1.0" encoding="iso-8859-1"?>
<!-- Generator: Adobe Illustrator 19.0.0, SVG Export Plug-In . SVG Version: 6.00 Build 0)  -->
<svg version="1.1" id="Layer_1" xmlns="http://www.w3.org/2000/svg" xmlns:xlink="http://www.w3.org/1999/xlink" x="0px" y="0px"
	 viewBox="0 0 503.874 503.874" style="enable-background:new 0 0 503.874 503.874;" xml:space="preserve">
<g>
	<g>
		<g>
			<path d="M503.79,303.303c0.018-0.545-0.012-1.041-0.057-1.511c-0.008-0.098-0.008-0.194-0.02-0.292
				c-1.066-8.931-7.756-29.335-45.257-28.462c-22.679,0.772-48.632-13.203-48.892-13.346c-0.269-0.143-0.562-0.285-0.848-0.394
				l-57.51-23.014c5.18-10.606,2.312-23.771-7.453-31.155c-11.096-8.377-26.901-6.144-35.261,4.935l-3.374,4.466
				c-3.839-2.335-7.774-4.901-11.935-7.782c4.019-5.352,5.724-11.947,4.796-18.585c-0.923-6.664-4.398-12.565-9.762-16.619
				s-12.011-5.791-18.65-4.851c-5.806,0.819-11.031,3.557-14.962,7.794c-3.831-3.902-7.312-7.684-10.51-11.435
				c-40.91-47.952-59.165-51.15-69.321-49.362c-3.626,0.638-7.521,1.654-11.893,3.097c-2.359,0.772-4.247,2.552-5.162,4.851
				c-5.758,14.403-23.199,28.168-44.443,35.085c-21.848,7.101-44.376,6.01-57.369-2.77c-4.768-3.231-9.687-5.296-14.666-6.229
				c-3.533-14.869-16.916-25.96-32.846-25.96c-4.642,0-8.393,3.752-8.393,8.393c0,4.633,3.752,8.393,8.393,8.393
				c9.348,0,16.96,7.595,16.978,16.947c0,0.011-0.002,0.022-0.002,0.033v80.191C14.777,246.6-18.851,287.539,14.833,340.151
				c-11.017,17.819-5.326,30.711-0.607,37.09c6.152,8.335,16.552,13.304,27.807,13.304h331.952
				c38.467,0,77.127-8.771,111.809-25.382l4.13-1.972C502.347,357.289,504.353,327.602,503.79,303.303z M333.638,218.533
				c3.693,2.787,4.432,8.066,1.637,11.759l-3.456,4.58c-0.014,0.017-0.027,0.036-0.041,0.054l-11.671,15.468
				c-2.787,3.693-8.066,4.415-11.759,1.637c-3.693-2.795-4.432-8.066-1.645-11.759l7.277-9.63c0.026-0.034,0.052-0.068,0.078-0.103
				l7.829-10.361C324.674,216.485,329.954,215.746,333.638,218.533z M271.883,183.329c0.394-0.059,0.789-0.084,1.175-0.084
				c1.813,0,3.567,0.579,5.044,1.695c1.788,1.351,2.946,3.324,3.257,5.54c0.302,2.216-0.269,4.432-1.62,6.22l-15.167,20.094
				c-1.351,1.788-3.324,2.946-5.54,3.257c-2.191,0.336-4.432-0.26-6.22-1.62c-3.693-2.795-4.432-8.066-1.645-11.751l15.184-20.102
				C267.695,184.797,269.667,183.639,271.883,183.329z M39.202,245.668c1.88-1.595,2.954-3.928,2.954-6.396v-73.812
				c1.444,0.613,2.887,1.41,4.339,2.392c17.391,11.759,44.972,13.614,71.965,4.835c24.45-7.949,44.385-23.451,53.147-41.044
				c2.182-0.621,4.163-1.091,6.06-1.418c2.417-0.47,16.157-0.243,53.659,43.73c3.918,4.584,8.198,9.196,12.965,13.971l-6.522,8.639
				c-8.36,11.071-6.152,26.893,4.919,35.261c4.423,3.341,9.686,5.095,15.125,5.095c1.175,0,2.35-0.084,3.534-0.252
				c6.664-0.923,12.565-4.39,16.619-9.762l5.094-6.748c4.123,2.871,8.05,5.452,11.89,7.824l-1.643,2.175
				c-8.36,11.079-6.152,26.901,4.927,35.269c4.532,3.425,9.854,5.07,15.142,5.07c7.63,0,15.184-3.45,20.128-9.988l7.662-10.15
				l60.902,24.358c3.962,2.073,31.526,15.872,56.882,15.108c11.401-0.39,25.121,1.516,27.744,11.854
				c-7.388,7.134-45.897,21.525-58.437,21.525c-6.178,0-11.575,2.694-16.342,5.078c-3.257,1.637-6.622,3.315-8.838,3.315
				l-373.644,0.191C-2.581,282.539,37.456,247.169,39.202,245.668z M482.085,348.325l-3.542,1.687
				c-32.432,15.536-68.591,23.745-104.557,23.745H42.033c-5.951,0-11.306-2.426-14.319-6.497c-1.418-1.922-5.514-7.462,1.628-18.684
				l373.735-0.193c6.178,0,11.583-2.694,16.342-5.078c3.257-1.637,6.622-3.315,8.838-3.315c10.475,0,39.911-8.645,58.452-18.558
				C485.996,334.468,484.242,345.287,482.085,348.325z"/>
			<path d="M88.61,282.453l-4.331,22.771c-0.604,3.148,0.646,6.371,3.215,8.293c2.577,1.914,6.01,2.199,8.872,0.739l21.336-10.987
				l21.336,10.987c1.217,0.63,2.535,0.932,3.844,0.932c1.771,0,3.542-0.562,5.028-1.67c2.568-1.922,3.819-5.145,3.215-8.293
				l-4.331-22.771l18.432-16.292c2.468-2.174,3.424-5.582,2.476-8.721c-0.957-3.148-3.651-5.439-6.908-5.884l-25.214-3.408
				l-10.349-20.984c-2.829-5.741-12.229-5.741-15.058,0l-10.349,20.984l-25.214,3.408c-3.257,0.445-5.951,2.736-6.908,5.884
				c-0.948,3.139,0.008,6.547,2.476,8.721L88.61,282.453z M106.496,264.189c2.77-0.378,5.162-2.098,6.404-4.608l4.801-9.736
				l4.801,9.736c1.242,2.51,3.634,4.23,6.404,4.608l11.457,1.544l-8.268,7.302c-2.216,1.964-3.24,4.944-2.686,7.856l2.006,10.559
				l-9.871-5.086c-1.209-0.621-2.526-0.932-3.844-0.932c-1.318,0-2.635,0.311-3.844,0.932l-9.871,5.086l2.006-10.559
				c0.554-2.913-0.47-5.892-2.686-7.856l-8.268-7.302L106.496,264.189z"/>
		</g>
	</g>
</g>
<g>
</g>
<g>
</g>
<g>
</g>
<g>
</g>
<g>
</g>
<g>
</g>
<g>
</g>
<g>
</g>
<g>
</g>
<g>
</g>
<g>
</g>
<g>
</g>
<g>
</g>
<g>
</g>
<g>
</g>
</svg>
