<?xml version="1.0" encoding="iso-8859-1"?>
<!-- Generator: Adobe Illustrator 18.0.0, SVG Export Plug-In . SVG Version: 6.00 Build 0)  -->
<!DOCTYPE svg PUBLIC "-//W3C//DTD SVG 1.1//EN" "http://www.w3.org/Graphics/SVG/1.1/DTD/svg11.dtd">
<svg version="1.1" id="Capa_1" xmlns="http://www.w3.org/2000/svg" xmlns:xlink="http://www.w3.org/1999/xlink" x="0px" y="0px"
	 viewBox="0 0 374.109 374.109" style="enable-background:new 0 0 374.109 374.109;" xml:space="preserve">
<g>
	<g>
		<path d="M374.109,174.391c0-49.488-40.264-89.75-89.752-89.75c-20.002,0-38.486,6.592-53.422,17.697l19.395-49.943
			c11.926-0.121,21.592-9.857,21.592-21.813c0-12.029-9.789-21.818-21.818-21.818c-12.031,0-21.818,9.789-21.818,21.818
			c0,6.746,3.078,12.787,7.904,16.793l-39.977,102.936c-2.801-1.252-5.898-1.955-9.158-1.955c-3.262,0-6.359,0.703-9.162,1.955
			L137.824,47.135c4.664-4.004,7.629-9.938,7.629-16.553c0-12.029-9.789-21.818-21.818-21.818c-12.031,0-21.818,9.789-21.818,21.818
			c0,12.031,9.787,21.818,21.818,21.818c0.047,0,0.096-0.002,0.143-0.004l19.395,49.941c-14.938-11.105-33.42-17.697-53.422-17.697
			C40.262,84.641,0,124.902,0,174.391c0,40.318,26.867,75.111,64.463,86.117c-9.072,11.32-14.09,25.406-14.09,40.272
			c0,35.602,28.963,64.566,64.564,64.566c27.84,0,51.619-17.713,60.664-42.461c3.359,1.988,7.273,3.135,11.453,3.135
			c4.178,0,8.092-1.147,11.449-3.135c9.047,24.748,32.826,42.461,60.668,42.461c35.6,0,64.564-28.965,64.564-64.566
			c0-14.865-5.02-28.951-14.092-40.272C347.24,249.502,374.109,214.709,374.109,174.391z M250.104,23.764
			c3.76,0,6.818,3.059,6.818,6.818s-3.059,6.818-6.818,6.818c-3.76,0-6.818-3.059-6.818-6.818S246.344,23.764,250.104,23.764z
			 M123.635,37.4c-3.76,0-6.818-3.059-6.818-6.818s3.059-6.818,6.818-6.818c3.76,0,6.818,3.059,6.818,6.818
			S127.395,37.4,123.635,37.4z M114.938,350.346c-27.33,0-49.564-22.236-49.564-49.566c0-15.242,6.877-29.42,18.871-38.898
			c2.373-1.875,3.387-4.994,2.57-7.906c-0.814-2.914-3.301-5.051-6.305-5.422C43.164,243.949,15,212.066,15,174.391
			c0-41.217,33.531-74.75,74.75-74.75c41.219,0,74.752,33.533,74.752,74.75v126.389
			C164.502,328.109,142.268,350.346,114.938,350.346z M194.605,303.467c0,4.164-3.389,7.553-7.551,7.553
			c-4.166,0-7.553-3.389-7.553-7.553V170.908c0-4.164,3.387-7.553,7.553-7.553c4.162,0,7.551,3.389,7.551,7.553V303.467z
			 M293.598,248.553c-3.002,0.371-5.488,2.508-6.305,5.422c-0.816,2.912,0.199,6.031,2.572,7.906
			c11.992,9.478,18.871,23.656,18.871,38.898c0,27.33-22.234,49.566-49.564,49.566c-27.332,0-49.566-22.236-49.566-49.566V174.391
			c0-41.217,33.533-74.75,74.752-74.75c41.219,0,74.752,33.533,74.752,74.75C359.109,212.066,330.945,243.949,293.598,248.553z"/>
	</g>
</g>
<g>
</g>
<g>
</g>
<g>
</g>
<g>
</g>
<g>
</g>
<g>
</g>
<g>
</g>
<g>
</g>
<g>
</g>
<g>
</g>
<g>
</g>
<g>
</g>
<g>
</g>
<g>
</g>
<g>
</g>
</svg>
