<?xml version="1.0" encoding="iso-8859-1"?>
<!-- Generator: Adobe Illustrator 19.0.0, SVG Export Plug-In . SVG Version: 6.00 Build 0)  -->
<svg version="1.1" id="Capa_1" xmlns="http://www.w3.org/2000/svg" xmlns:xlink="http://www.w3.org/1999/xlink" x="0px" y="0px"
	 viewBox="0 0 512.001 512.001" style="enable-background:new 0 0 512.001 512.001;" xml:space="preserve">
<g>
	<g>
		<path d="M287.307,264.871c-4.142,0-7.5,3.357-7.5,7.5c0,12.343-10.204,22.385-22.747,22.385
			c-12.544,0-22.749-10.042-22.749-22.385c0-4.143-3.358-7.5-7.5-7.5c-4.142,0-7.5,3.357-7.5,7.5
			c0,20.614,16.934,37.385,37.749,37.385c20.814,0,37.747-16.771,37.747-37.385C294.807,268.228,291.449,264.871,287.307,264.871z"
			/>
	</g>
</g>
<g>
	<g>
		<path d="M265.411,238.34h-3.638v-11.764c0-4.143-3.358-7.5-7.5-7.5c-4.142,0-7.5,3.357-7.5,7.5v16.264c0,5.79,4.71,10.5,10.5,10.5
			h8.138c4.142,0,7.5-3.357,7.5-7.5S269.553,238.34,265.411,238.34z"/>
	</g>
</g>
<g>
	<g>
		<path d="M204.482,214.48c-4.142,0-7.5,3.357-7.5,7.5v6.308c0,4.143,3.358,7.5,7.5,7.5c4.142,0,7.5-3.357,7.5-7.5v-6.308
			C211.982,217.838,208.624,214.48,204.482,214.48z"/>
	</g>
</g>
<g>
	<g>
		<path d="M307.517,214.48c-4.142,0-7.5,3.357-7.5,7.5v6.308c0,4.143,3.358,7.5,7.5,7.5c4.142,0,7.5-3.357,7.5-7.5v-6.308
			C315.017,217.837,311.659,214.48,307.517,214.48z"/>
	</g>
</g>
<g>
	<g>
		<path d="M387.562,341.837c0-2.93-0.521-5.739-1.474-8.343c35.835-35.229,58.249-85.145,58.249-140.427
			C444.336,86.609,361.264,0,259.154,0h-6.309C150.736,0,67.664,86.609,67.664,193.067c0,55.282,22.413,105.198,58.248,140.427
			c-0.953,2.604-1.474,5.413-1.474,8.343c0,7.923,3.809,14.971,9.691,19.414c-21.031,21.229-34.044,50.382-34.044,82.518v55.087
			c0,7.248,5.902,13.145,13.158,13.145h285.515c7.255,0,13.158-5.897,13.158-13.145v-55.087c0-32.136-13.013-61.288-34.044-82.518
			C383.753,356.808,387.562,349.76,387.562,341.837z M121.16,283.403c0.063-0.249,0.135-0.493,0.208-0.738
			c0.967-3.29-0.421-6.817-3.371-8.566c-8.844-5.244-11.947-16.446-7.079-25.479c0.129-0.237,0.267-0.47,0.407-0.708
			c1.731-2.952,1.245-6.702-1.182-9.114c-7.291-7.247-7.559-18.869-0.611-26.456c0.166-0.181,0.337-0.352,0.508-0.523
			c2.435-2.436,2.899-6.216,1.125-9.167c-5.297-8.813-2.713-20.148,5.871-25.798c0.219-0.143,0.441-0.277,0.663-0.411
			c2.936-1.772,4.296-5.311,3.301-8.594c-2.98-9.84,2.298-20.197,12.006-23.576c0.252-0.088,0.506-0.164,0.759-0.242
			c3.272-1.006,5.447-4.101,5.286-7.52c-0.482-10.271,7.169-19.021,17.403-19.921c0.265-0.022,0.528-0.035,0.791-0.049
			c3.422-0.171,6.293-2.64,6.975-5.998c2.045-10.076,11.607-16.685,21.777-15.053c0.248,0.04,0.493,0.09,0.738,0.14
			c3.364,0.675,6.758-1.014,8.242-4.107c4.449-9.268,15.336-13.338,24.816-9.259c0.226,0.097,0.446,0.203,0.666,0.309
			c3.095,1.477,6.799,0.668,8.995-1.967c6.579-7.898,18.133-9.185,26.286-2.938c0.184,0.142,0.361,0.289,0.539,0.435l0.107,0.088
			c2.641,2.165,6.41,2.274,9.168,0.266c8.315-6.047,19.832-4.467,26.205,3.58c0.158,0.2,0.307,0.403,0.455,0.608
			c2.019,2.786,5.676,3.846,8.869,2.561c5.028-2.02,10.712-1.794,15.591,0.616c3.714,1.837,8.212,0.313,10.047-3.401
			c1.835-3.713,0.312-8.211-3.401-10.046c-7.031-3.475-15.004-4.398-22.548-2.723c-10.447-10.368-26.309-12.814-39.337-6.205
			c-12.664-7.49-28.638-5.976-39.648,3.614c-14.112-4.163-29.228,1.211-37.558,13.205c-14.71-0.588-28.043,8.323-33.186,21.992
			c-14.398,3.028-25.155,14.932-26.796,29.444c-13.218,6.46-20.737,20.633-18.778,35.104c-11.235,9.498-15.058,25.08-9.618,38.633
			c-8.569,11.958-8.464,28.001,0.127,39.81c-1.382,3.516-2.134,7.151-2.313,10.774c-7.1-19.583-10.999-40.801-10.999-62.956
			C82.664,94.881,159.007,15,252.846,15h6.309c93.839,0,170.182,79.881,170.182,178.067c0,24.457-4.75,47.771-13.315,69.003
			c-0.252-2.146-0.686-4.287-1.363-6.397c9.407-11.314,10.451-27.325,2.728-39.719c6.352-13.273,3.446-29.052-7.074-39.18
			c2.911-14.421-3.766-29.008-16.443-36.255c-0.704-14.701-10.753-27.215-24.825-31.137c-2.33-7.56-7.262-14.176-13.937-18.545
			c-3.466-2.269-8.114-1.299-10.383,2.168c-2.269,3.466-1.298,8.114,2.168,10.383c4.461,2.92,7.431,7.417,8.359,12.651
			c0.041,0.231,0.072,0.464,0.118,0.792c0.477,3.388,3.186,6.022,6.585,6.406c10.216,1.155,17.641,10.1,16.903,20.365
			c-0.018,0.255-0.047,0.506-0.075,0.757c-0.381,3.41,1.601,6.645,4.813,7.853c9.622,3.62,14.633,14.109,11.405,23.888
			c-0.079,0.239-0.167,0.474-0.254,0.706c-1.206,3.215-0.075,6.837,2.745,8.795c8.445,5.862,10.737,17.26,5.227,25.93
			c-0.138,0.217-0.284,0.427-0.429,0.635c-1.961,2.822-1.753,6.617,0.505,9.208c6.755,7.751,6.189,19.361-1.292,26.438
			c-0.186,0.175-0.377,0.34-0.567,0.507c-2.582,2.258-3.303,5.98-1.751,9.04c4.653,9.168,1.263,20.287-7.706,25.307
			c-0.226,0.126-0.456,0.243-0.684,0.359c-3.06,1.557-4.673,4.992-3.915,8.34c2.268,10.027-3.74,19.98-13.671,22.656
			c-0.248,0.066-0.498,0.121-0.747,0.178c-2.145,0.488-3.892,1.876-4.9,3.708c-1.403-0.252-2.846-0.392-4.321-0.392h-34.54
			c1.327-7.443,7.011-13.618,14.571-15.329c3.348-0.759,5.754-3.691,5.842-7.123c0.18-7.027,4.179-13.366,10.435-16.543
			c3.06-1.555,4.675-4.987,3.921-8.335c-1.544-6.858,0.782-13.984,6.071-18.596c2.587-2.256,3.313-5.979,1.762-9.042
			c-3.175-6.271-2.663-13.748,1.337-19.514c1.957-2.819,1.75-6.608-0.503-9.197c-4.613-5.304-5.946-12.679-3.478-19.248
			c1.207-3.212,0.08-6.834-2.737-8.794c-5.771-4.016-8.868-10.843-8.083-17.815c0.384-3.411-1.596-6.647-4.808-7.858
			c-6.577-2.479-11.249-8.338-12.194-15.291c-0.461-3.401-3.173-6.055-6.583-6.443c-6.984-0.795-12.949-5.334-15.565-11.846
			c-1.28-3.185-4.557-5.099-7.96-4.636c-6.965,0.936-13.86-2.004-17.99-7.677c-2.02-2.774-5.665-3.828-8.852-2.548
			c-6.526,2.612-13.93,1.447-19.323-3.042c-2.638-2.196-6.429-2.322-9.207-0.305c-5.688,4.133-13.15,4.812-19.479,1.779
			c-3.093-1.483-6.801-0.677-9.001,1.957c-4.503,5.397-11.574,7.885-18.452,6.49c-3.368-0.683-6.762,1.008-8.249,4.101
			c-3.046,6.336-9.292,10.477-16.301,10.808c-3.429,0.161-6.311,2.63-6.996,5.993c-1.403,6.888-6.447,12.432-13.164,14.469
			c-3.284,0.996-5.474,4.094-5.315,7.522c0.324,7.023-3.21,13.633-9.223,17.248c-2.942,1.77-4.307,5.31-3.314,8.597
			c2.033,6.729,0.224,14.002-4.722,18.979c-2.419,2.436-2.876,6.202-1.11,9.146c3.618,6.028,3.643,13.523,0.066,19.559
			c-1.75,2.953-1.272,6.717,1.161,9.139c4.982,4.96,6.84,12.22,4.848,18.948c-0.975,3.291,0.41,6.824,3.362,8.577
			c6.045,3.591,9.624,10.176,9.339,17.186c-0.14,3.431,2.068,6.518,5.359,7.494c8.047,2.39,13.668,9.927,13.668,18.329
			c0,0.972-0.075,1.927-0.217,2.859H148.76c-3.04,0-5.948,0.566-8.633,1.589c-0.345-1.428-0.534-2.916-0.534-4.448
			c0-0.258,0.011-0.512,0.02-0.767c0.133-3.427-2.075-6.507-5.363-7.482C124.393,303.485,118.643,293.381,121.16,283.403z
			 M372.562,341.837c0,5.14-4.182,9.321-9.322,9.321h-79.904c-5.14,0-9.322-4.181-9.322-9.321c0-5.141,4.182-9.322,9.322-9.322
			h79.904C368.38,332.515,372.562,336.697,372.562,341.837z M236.736,497h-89.698v-58.377c0-4.142-3.358-7.5-7.5-7.5
			c-4.142,0-7.5,3.358-7.5,7.5V497h-16.954v-53.231h0.001c0-30.989,13.865-58.806,35.73-77.61h77.849
			c2.829,0,5.544-0.49,8.072-1.383V497z M228.664,351.158H148.76c-5.14,0-9.322-4.182-9.322-9.321c0-5.141,4.182-9.322,9.322-9.322
			h79.904c5.14,0,9.322,4.182,9.322,9.322S233.804,351.158,228.664,351.158z M228.664,317.514h-35.956
			c0.079-0.943,0.126-1.895,0.126-2.859c0-13.132-7.695-25.079-19.258-30.709c-1.04-8.587-5.314-16.457-11.953-22.014
			c1.09-8.576-1.128-17.249-6.203-24.257c3.154-8.048,3.125-17-0.081-25.037c1.868-2.613,3.339-5.455,4.393-8.436
			c17.096,0.454,33.192-0.043,48.011-1.52c4.122-0.41,7.13-4.085,6.719-8.207c-0.41-4.122-4.089-7.136-8.207-6.719
			c-13.81,1.377-28.813,1.866-44.771,1.491c-0.032-0.302-0.059-0.604-0.099-0.905c6.596-5.588,10.818-13.482,11.809-22.078
			c7.762-3.806,13.788-10.427,16.851-18.517c8.457-1.79,15.92-6.735,20.87-13.832c8.658,0.329,17.085-2.636,23.62-8.305
			c8.294,2.438,17.21,1.623,24.935-2.273c7.446,4.392,16.289,5.784,24.731,3.896c6.146,6.081,14.378,9.595,23.028,9.829
			c4.471,7.399,11.594,12.821,19.922,15.165c2.524,8.268,8.105,15.268,15.607,19.577c0.383,7.767,3.421,15.139,8.553,20.921
			c-33.685-8.514-52.197-33.684-52.405-33.972c-1.279-1.799-3.286-2.942-5.485-3.126c-2.202-0.188-4.368,0.609-5.929,2.171
			c-9.71,9.71-23.712,17.314-41.617,22.598c-3.973,1.173-6.243,5.344-5.07,9.316c1.172,3.974,5.343,6.239,9.316,5.07
			c16.975-5.01,31.027-12.021,41.898-20.894c9.13,10.002,29.807,28.626,61.206,34.667c0.818,3.75,2.265,7.368,4.323,10.689
			c-3.723,7.803-4.336,16.733-1.715,24.979c-5.519,6.654-8.298,15.164-7.774,23.801c-6.981,5.103-11.758,12.676-13.362,21.181
			c-11.646,4.739-19.866,15.703-21.114,28.307h-30.249c-11.853,0-21.747,8.525-23.888,19.763c-1.146,0.036-2.294,0.061-3.448,0.061
			s-2.301-0.022-3.446-0.059C250.411,326.039,240.517,317.514,228.664,317.514z M396.917,443.768V497h-0.002h-16.954v-58.377
			c0-4.142-3.358-7.5-7.5-7.5c-4.142,0-7.5,3.358-7.5,7.5V497h-89.697v-55.998c0-4.143-3.358-7.5-7.5-7.5
			c-4.142,0-7.5,3.357-7.5,7.5V497h-8.527V352.256c1.416,0.049,2.836,0.082,4.264,0.082c1.428,0,2.848-0.033,4.264-0.082V402
			c0,4.143,3.358,7.5,7.5,7.5c4.142,0,7.5-3.357,7.5-7.5v-37.225c2.528,0.893,5.243,1.383,8.072,1.383h77.85
			C383.052,384.963,396.917,412.779,396.917,443.768z"/>
	</g>
</g>
<g>
	<g>
		<path d="M338.347,445.239h-32.939c-4.142,0-7.5,3.357-7.5,7.5s3.358,7.5,7.5,7.5h32.939c4.142,0,7.5-3.357,7.5-7.5
			C345.847,448.597,342.489,445.239,338.347,445.239z"/>
	</g>
</g>
<g>
</g>
<g>
</g>
<g>
</g>
<g>
</g>
<g>
</g>
<g>
</g>
<g>
</g>
<g>
</g>
<g>
</g>
<g>
</g>
<g>
</g>
<g>
</g>
<g>
</g>
<g>
</g>
<g>
</g>
</svg>
