<?xml version="1.0" encoding="iso-8859-1"?>
<!-- Generator: Adobe Illustrator 19.0.0, SVG Export Plug-In . SVG Version: 6.00 Build 0)  -->
<svg version="1.1" id="Capa_1" xmlns="http://www.w3.org/2000/svg" xmlns:xlink="http://www.w3.org/1999/xlink" x="0px" y="0px"
	 viewBox="0 0 512 512" style="enable-background:new 0 0 512 512;" xml:space="preserve">
<g>
	<g>
		<path d="M219.749,444.813c-19.344-9.178-34.471-25.115-42.594-44.873c-2.1-5.108-7.942-7.545-13.05-5.447
			c-5.108,2.1-7.546,7.942-5.447,13.05c10.018,24.371,28.669,44.023,52.518,55.338c1.384,0.657,2.843,0.968,4.28,0.968
			c3.742,0,7.33-2.11,9.041-5.716C226.863,453.144,224.738,447.179,219.749,444.813z"/>
	</g>
</g>
<g>
	<g>
		<path d="M170.839,369.27c-0.123-5.521-4.689-9.933-10.219-9.813c-5.521,0.123-9.898,4.659-9.775,10.18
			c0,0.037,0.001,0.107,0.002,0.144c0.121,5.447,4.575,9.816,9.995,9.816c0.074-0.001,0.149-0.002,0.224-0.003
			c5.521-0.123,9.898-4.659,9.775-10.18C170.84,369.377,170.84,369.307,170.839,369.27z"/>
	</g>
</g>
<g>
	<g>
		<path d="M229.582,130.839c-3.905-3.905-10.236-3.905-14.142,0l-0.078,0.078c-3.905,3.905-3.905,10.236,0,14.142
			c1.953,1.953,4.513,2.929,7.071,2.929c2.559,0,5.119-0.976,7.07-2.929l0.078-0.078
			C233.486,141.076,233.486,134.745,229.582,130.839z"/>
	</g>
</g>
<g>
	<g>
		<path d="M294.654,130.839c-3.905-3.905-10.236-3.905-14.142,0l-0.078,0.078c-3.905,3.905-3.905,10.236,0,14.142
			c1.953,1.953,4.513,2.929,7.071,2.929s5.119-0.976,7.07-2.929l0.078-0.078C298.559,141.076,298.559,134.745,294.654,130.839z"/>
	</g>
</g>
<g>
	<g>
		<path d="M264.45,156.563c-2.641-4.159-7.917-5.775-12.434-3.808l-56.914,24.785c-3.979,1.732-6.384,5.833-5.958,10.15
			c0.427,4.318,3.589,7.868,7.829,8.789l56.914,12.357c0.704,0.153,1.415,0.228,2.122,0.228c2.262,0,4.482-0.769,6.276-2.215
			c1.634-1.317,2.793-3.1,3.35-5.078c0.136-0.287,0.305-0.625,0.494-1.009c2.015-4.113,5.767-11.77,5.767-20.269
			C271.894,168.63,265.212,157.764,264.45,156.563z M250.176,187.567l-18.69-4.058l19.495-8.49c0.541,1.804,0.915,3.701,0.915,5.476
			C251.896,182.707,251.101,185.276,250.176,187.567z"/>
	</g>
</g>
<g>
	<g>
		<path d="M463.166,235.341c-2.762-4.783-8.876-6.422-13.659-3.66l-14.198,8.197l1.406-5.248c1.43-5.335-1.736-10.817-7.07-12.247
			c-5.334-1.431-10.818,1.736-12.247,7.07l-6.583,24.565l-39.332,22.708c-0.138-0.178-0.278-0.354-0.416-0.531
			c3.749-5.886,5.93-12.864,5.93-20.344c0-19.096-14.163-34.942-32.536-37.599c11.368-17.16,17.474-37.271,17.474-58.33
			c0-19.167-5.187-37.777-14.823-54.014c8.343-0.813,14.887-7.863,14.887-16.417V70.494c0-9.097-7.401-16.499-16.499-16.499h-7.499
			V25.998C338.001,11.663,326.338,0,312.003,0H200.012c-14.335,0-25.998,11.663-25.998,25.998v27.998h-7.499
			c-9.097,0-16.499,7.401-16.499,16.499v18.998c0,8.553,6.544,15.604,14.887,16.417c-9.637,16.238-14.823,34.846-14.823,54.014
			c0,21.059,6.105,41.171,17.474,58.33c-18.372,2.657-32.536,18.502-32.536,37.599c0,7.48,2.182,14.457,5.93,20.343
			c-0.072,0.092-0.144,0.184-0.216,0.276l-38.889-22.452l-6.583-24.565c-1.43-5.334-6.911-8.502-12.247-7.07
			c-5.334,1.429-8.499,6.912-7.07,12.247l1.406,5.248l-14.197-8.197c-4.781-2.76-10.897-1.123-13.659,3.66S48.37,246.239,53.152,249
			l14.198,8.197l-5.249,1.406c-5.334,1.429-8.499,6.912-7.07,12.247c1.197,4.468,5.237,7.414,9.652,7.413
			c0.856,0,1.728-0.111,2.595-0.343l24.565-6.582l37.695,21.763c-13.148,22.767-19.964,48.791-19.494,75.53
			c0.67,38.154,16.084,74.046,43.4,101.064c27.314,27.015,63.373,42.039,101.535,42.302c0.347,0.002,0.693,0.004,1.04,0.004
			c38.811,0,75.304-15.035,102.861-42.401c27.805-27.614,43.118-64.402,43.118-103.588c0-25.672-6.756-50.676-19.36-72.631
			l38.178-22.043l24.565,6.583c0.867,0.232,1.738,0.343,2.595,0.343c4.415,0,8.455-2.947,9.652-7.413
			c1.43-5.335-1.736-10.817-7.07-12.247l-5.249-1.406L459.506,249C464.288,246.239,465.927,240.123,463.166,235.341z
			 M194.014,25.998L194.014,25.998c0-3.309,2.691-6,6-6h111.991c3.309,0,6,2.691,6,6v27.998h-123.99V25.998z M170.016,73.994h13.999
			h143.988h13.999v11.999h-14.48H184.495h-14.48V73.994z M341.938,159.924c0,21.646-7.947,42.064-22.463,57.932H192.543
			c-14.517-15.868-22.463-36.285-22.463-57.932c0-19.702,6.729-38.687,19.035-53.933h133.787
			C335.208,121.237,341.938,140.221,341.938,159.924z M173.015,237.854h165.986c9.924,0,17.999,8.074,17.999,17.998
			c0,9.924-8.074,17.999-17.999,17.999H173.015c-9.924,0-17.998-8.074-17.998-17.999
			C155.017,245.928,163.091,237.854,173.015,237.854z M327.503,293.849v98.869c0,0.965-0.785,1.75-1.75,1.75h-24.498
			c-0.965,0-1.75-0.785-1.75-1.75v-28.079c8.503-2.957,14.626-11.046,14.626-20.544v-50.246H327.503z M294.132,293.849v50.246
			c0,0.965-0.785,1.75-1.75,1.75h-24.498c-0.965,0-1.75-0.785-1.75-1.75v-50.246h23.371H294.132z M344.786,455.409
			c-23.783,23.619-55.274,36.594-88.773,36.592c-0.297,0-0.6-0.001-0.897-0.003c-67.778-0.468-123.888-55.967-125.078-123.719
			c-0.501-28.517,8.586-56.095,25.739-78.583c5.178,2.648,11.034,4.153,17.238,4.153h73.121v50.246
			c0,11.992,9.756,21.748,21.748,21.748h11.622v26.875c0,11.992,9.756,21.748,21.748,21.748h24.498
			c11.992,0,21.748-9.756,21.748-21.748v-99.839c3.07-0.705,5.997-1.781,8.735-3.18c16.669,21.866,25.762,48.64,25.762,76.313
			C381.998,399.829,368.783,431.578,344.786,455.409z"/>
	</g>
</g>
<g>
	<g>
		<path d="M69.259,70.667l-12.117-6.995l12.117-6.995c4.783-2.761,6.422-8.876,3.66-13.659c-2.761-4.783-8.876-6.421-13.659-3.66
			l-12.117,6.995V32.361c0-5.523-4.477-9.999-9.999-9.999s-9.999,4.477-9.999,9.999v13.992l-12.116-6.996
			c-4.782-2.76-10.897-1.123-13.659,3.66s-1.123,10.898,3.66,13.659l12.117,6.995L5.029,70.667
			c-4.783,2.761-6.421,8.876-3.66,13.659c1.852,3.208,5.213,5.001,8.668,5.001c1.696,0,3.416-0.432,4.991-1.341l12.117-6.995v13.992
			c0,5.523,4.477,9.999,9.999,9.999c5.523,0,9.999-4.477,9.999-9.999V80.99l12.116,6.995c1.575,0.909,3.294,1.341,4.991,1.341
			c3.456,0,6.816-1.793,8.668-5.001C75.68,79.543,74.041,73.428,69.259,70.667z"/>
	</g>
</g>
<g>
	<g>
		<path d="M506.971,455.196l-12.117-6.995l12.117-6.995c4.783-2.761,6.422-8.876,3.66-13.659c-2.761-4.783-8.877-6.421-13.659-3.66
			l-12.117,6.995v-13.991c0-5.523-4.477-9.999-9.999-9.999c-5.523,0-9.999,4.477-9.999,9.999v13.991l-12.117-6.995
			c-4.781-2.76-10.898-1.123-13.659,3.66c-2.762,4.783-1.123,10.898,3.66,13.659l12.117,6.995l-12.117,6.995
			c-4.783,2.761-6.422,8.876-3.66,13.659c1.852,3.208,5.213,5.001,8.668,5.001c1.696,0,3.416-0.432,4.991-1.341l12.117-6.995v13.991
			c0,5.523,4.477,9.999,9.999,9.999c5.523,0,9.999-4.477,9.999-9.999v-13.991l12.117,6.995c1.575,0.909,3.294,1.341,4.991,1.341
			c3.456,0,6.816-1.793,8.668-5.001C513.392,464.073,511.754,457.957,506.971,455.196z"/>
	</g>
</g>
<g>
	<g>
		<path d="M453.869,144.984l-12.117-6.995l12.117-6.995c4.783-2.761,6.421-8.876,3.66-13.659c-2.761-4.783-8.877-6.421-13.659-3.66
			l-12.117,6.995v-13.992c0-5.523-4.477-9.999-9.999-9.999c-5.523,0-9.999,4.477-9.999,9.999v13.992l-12.117-6.995
			c-4.784-2.76-10.897-1.122-13.659,3.66c-2.762,4.783-1.123,10.898,3.66,13.659l12.117,6.995l-12.117,6.995
			c-4.783,2.761-6.421,8.876-3.66,13.659c1.852,3.208,5.213,5.001,8.668,5.001c1.696,0,3.416-0.432,4.991-1.341l12.117-6.995v13.992
			c0,5.523,4.477,9.999,9.999,9.999c5.523,0,9.999-4.477,9.999-9.999v-13.992l12.117,6.995c1.575,0.909,3.294,1.341,4.991,1.341
			c3.456,0,6.816-1.793,8.668-5.001C460.291,153.86,458.652,147.745,453.869,144.984z"/>
	</g>
</g>
<g>
</g>
<g>
</g>
<g>
</g>
<g>
</g>
<g>
</g>
<g>
</g>
<g>
</g>
<g>
</g>
<g>
</g>
<g>
</g>
<g>
</g>
<g>
</g>
<g>
</g>
<g>
</g>
<g>
</g>
</svg>
