<?xml version="1.0" encoding="iso-8859-1"?>
<!-- Generator: Adobe Illustrator 19.0.0, SVG Export Plug-In . SVG Version: 6.00 Build 0)  -->
<svg version="1.1" id="Capa_1" xmlns="http://www.w3.org/2000/svg" xmlns:xlink="http://www.w3.org/1999/xlink" x="0px" y="0px"
	 viewBox="0 0 512 512" style="enable-background:new 0 0 512 512;" xml:space="preserve">
<g>
	<g>
		<g>
			<path d="M400.347,153.372l-36.729,9.823c-4.002,1.07-6.378,5.181-5.308,9.182c0.896,3.352,3.928,5.564,7.24,5.564
				c0.641,0,1.294-0.083,1.942-0.257l36.729-9.823c4.001-1.07,6.377-5.181,5.307-9.182
				C408.457,154.677,404.34,152.298,400.347,153.372z"/>
			<path d="M509.514,425.586c2.47-4.268,3.126-9.243,1.847-14.005l-8.413-31.337c-1.061-3.951-3.335-7.259-6.316-9.631
				c1.442-3.65,1.678-7.651,0.641-11.513l-8.608-32.067c-1.061-3.951-3.335-7.259-6.317-9.631c1.442-3.651,1.678-7.651,0.641-11.513
				l-9.784-36.448c-1.061-3.951-3.335-7.259-6.316-9.631c1.442-3.65,1.678-7.651,0.641-11.513l-9.419-35.087
				c-1.061-3.951-3.335-7.259-6.317-9.63c1.442-3.651,1.678-7.652,0.641-11.513l-8.459-31.512c-1.061-3.951-3.335-7.259-6.316-9.631
				c1.442-3.65,1.678-7.651,0.641-11.514c-4.581-17.06-20.677-28.276-38.307-26.667l-22.693,2.073
				c-6.298-9.471-15.432-16.883-25.917-21.14c0.72-3.54,1.069-7.158,1.043-10.818c-0.211-28.594-24.028-51.859-53.097-51.859
				h-86.662c-29.07,0-52.888,23.265-53.095,51.864c-0.026,3.659,0.324,7.275,1.043,10.815
				c-10.492,4.257-19.614,11.664-25.918,21.141l-22.692-2.073c-17.621-1.6-33.727,9.606-38.307,26.668
				c-1.037,3.861-0.801,7.862,0.641,11.513c-2.981,2.372-5.257,5.681-6.317,9.631l-8.459,31.512
				c-1.037,3.861-0.801,7.861,0.642,11.513c-2.981,2.372-5.257,5.68-6.317,9.63l-9.419,35.086
				c-1.037,3.861-0.801,7.862,0.642,11.514c-2.981,2.371-5.257,5.68-6.317,9.63l-9.784,36.448
				c-1.037,3.861-0.801,7.862,0.641,11.513c-2.981,2.371-5.256,5.68-6.317,9.63l-8.609,32.067
				c-1.037,3.861-0.801,7.862,0.641,11.514c-2.981,2.371-5.256,5.68-6.317,9.63l-8.412,31.337
				c-1.278,4.762-0.623,9.735,1.847,14.005c1.239,2.142,2.859,3.977,4.769,5.435l-2.36,24.292
				c-0.691,7.119,3.826,13.63,10.742,15.479l36.289,9.705c1.269,0.34,2.546,0.503,3.805,0.503
				c5.595-0.001,10.816-3.227,13.236-8.537l10.133-22.236c7.189-0.942,13.467-6.095,15.458-13.513l8.412-31.337
				c1.037-3.861,0.801-7.862-0.641-11.513c2.981-2.372,5.257-5.681,6.317-9.631l8.609-32.068c1.037-3.861,0.801-7.861-0.642-11.513
				c2.981-2.372,5.257-5.68,6.317-9.63l2.409-8.973v2.829c0,6.289,2.458,12.015,6.465,16.271c-4.007,4.256-6.465,9.982-6.465,16.271
				v24.408c0,0.489,0.015,0.975,0.044,1.463c0.577,9.443,7.371,17.18,16.341,19.487v22.269c0,9.477,7.719,17.188,17.207,17.188
				h194.136c9.488,0,17.207-7.711,17.207-17.188v-22.269c8.969-2.308,15.763-10.044,16.34-19.483
				c0.03-0.484,0.045-0.974,0.045-1.467v-24.408c0-6.289-2.458-12.015-6.465-16.271c4.007-4.256,6.465-9.982,6.465-16.271v-2.829
				l2.409,8.973c1.061,3.95,3.336,7.258,6.316,9.63c-1.442,3.651-1.678,7.651-0.641,11.513l8.608,32.068
				c1.061,3.951,3.335,7.259,6.316,9.631c-1.442,3.65-1.678,7.651-0.641,11.513l8.413,31.337
				c1.991,7.419,8.267,12.571,15.458,13.513l10.135,22.235c2.965,6.504,10.135,9.883,17.04,8.033l36.29-9.705
				c6.917-1.851,11.434-8.361,10.741-15.479l-2.359-24.292C506.654,429.562,508.275,427.727,509.514,425.586z M217.853,62.85
				c0-9.292,7.605-16.851,16.953-16.851h42.385c9.347,0,16.953,7.559,16.953,16.851v0.112c0,9.292-7.605,16.851-16.953,16.851
				h-42.385c-9.348,0-16.953-7.559-16.953-16.851V62.85z M55.465,465.916l-35.606-9.522l1.948-20.051l42.016,11.237L55.465,465.916z
				 M158.931,427.238L158.931,427.238c-1.217,0-2.207-0.981-2.207-2.188v-21.566h25.989c4.142,0,7.5-3.357,7.5-7.5
				s-3.358-7.5-7.5-7.5h-35.41c-3.625,0-6.742-2.739-6.948-6.1c-0.011-0.183-0.017-0.367-0.017-0.554v-24.408
				c0-4.837,3.949-8.771,8.802-8.771c4.142,0,7.5-3.357,7.5-7.5s-3.358-7.5-7.5-7.5c-4.853,0-8.802-3.935-8.802-8.771v-24.408
				c0-4.837,3.949-8.771,8.802-8.771c4.142,0,7.5-3.357,7.5-7.5s-3.358-7.5-7.5-7.5c-4.853,0-8.802-3.935-8.802-8.772
				c0-0.45-0.04-0.892-0.116-1.32l7.587-28.263c1.037-3.861,0.801-7.862-0.641-11.513c2.981-2.372,5.257-5.681,6.317-9.631
				l3.005-11.193c1.074-4-1.299-8.114-5.299-9.187c-3.996-1.069-8.114,1.298-9.188,5.299l-3.005,11.193
				c-0.494,1.84-2.398,2.928-4.248,2.438c-0.212-0.057-0.425-0.104-0.638-0.142l-35.84-9.585c-3.998-1.072-8.112,1.307-9.182,5.308
				s1.306,8.112,5.308,9.182l35.964,9.618c0.206,0.056,0.413,0.102,0.619,0.139c1.138,0.341,1.738,1.13,1.998,1.579
				c0.266,0.46,0.665,1.41,0.344,2.605l-9.419,35.087c-0.493,1.839-2.398,2.934-4.248,2.437c-0.069-0.019-0.139-0.036-0.208-0.053
				c-0.024-0.007-0.048-0.014-0.073-0.02l-37.015-9.899c-3.997-1.068-8.112,1.307-9.182,5.308c-1.07,4.001,1.306,8.112,5.308,9.182
				l37.015,9.899c0.069,0.019,0.138,0.036,0.207,0.053c0.024,0.007,0.048,0.014,0.073,0.02c1.207,0.323,1.836,1.147,2.103,1.609
				c0.266,0.46,0.665,1.411,0.344,2.605l-9.784,36.449c-0.494,1.838-2.398,2.929-4.248,2.437c-0.409-0.109-0.82-0.184-1.228-0.223
				l-36.822-9.848c-3.998-1.067-8.112,1.307-9.182,5.308c-1.07,4.001,1.306,8.112,5.307,9.182l37.518,10.034
				c0.333,0.09,0.668,0.155,1.002,0.197c0.905,0.384,1.404,1.05,1.634,1.448c0.266,0.46,0.665,1.411,0.344,2.605l-8.609,32.068
				c-0.493,1.839-2.4,2.929-4.248,2.438c-0.478-0.128-0.957-0.207-1.432-0.239l-36.926-9.876c-4.001-1.067-8.113,1.307-9.183,5.308
				c-1.07,4.001,1.306,8.112,5.307,9.182l37.816,10.114c0.375,0.101,0.749,0.17,1.124,0.212c0.835,0.389,1.302,1.017,1.523,1.398
				c0.266,0.46,0.665,1.41,0.344,2.605l-8.412,31.337c-0.493,1.838-2.399,2.932-4.248,2.437l-58.251-15.579
				c-1.207-0.323-1.836-1.147-2.103-1.609c-0.266-0.46-0.665-1.41-0.344-2.605l8.412-31.337c0.413-1.54,1.816-2.557,3.348-2.557
				c0.297,0,0.6,0.038,0.9,0.118c4.003,1.071,8.113-1.305,9.183-5.308c0.174-0.648,0.257-1.3,0.257-1.941
				c0-3.312-2.211-6.345-5.564-7.241c-1.207-0.323-1.836-1.147-2.103-1.609c-0.266-0.46-0.665-1.41-0.344-2.605l8.609-32.067
				c0.493-1.84,2.403-2.933,4.247-2.438c4.003,1.073,8.113-1.306,9.183-5.308c0.174-0.648,0.257-1.3,0.257-1.941
				c0-3.312-2.211-6.345-5.564-7.241c-1.207-0.323-1.836-1.147-2.103-1.609c-0.266-0.46-0.665-1.41-0.344-2.605l9.784-36.448
				c0.493-1.839,2.396-2.932,4.247-2.438c4.004,1.074,8.113-1.305,9.183-5.308c0.174-0.648,0.257-1.3,0.257-1.94
				c0-3.313-2.211-6.346-5.564-7.242c-1.207-0.323-1.836-1.147-2.104-1.609c-0.266-0.46-0.665-1.41-0.344-2.605l9.419-35.087
				c0.493-1.838,2.4-2.931,4.247-2.437c4.003,1.075,8.113-1.306,9.183-5.308c0.174-0.648,0.257-1.3,0.257-1.941
				c0-3.312-2.211-6.345-5.564-7.241c-1.207-0.323-1.836-1.147-2.103-1.609c-0.266-0.46-0.665-1.411-0.344-2.605l8.459-31.512
				c0.494-1.839,2.402-2.927,4.248-2.438c4.004,1.076,8.113-1.305,9.183-5.308c0.174-0.648,0.257-1.3,0.257-1.941
				c0-3.312-2.211-6.345-5.564-7.241c-1.207-0.323-1.836-1.147-2.104-1.609c-0.266-0.46-0.665-1.41-0.344-2.605
				c2.682-9.993,12.129-16.565,22.456-15.619l42.246,3.859c2.691,0.246,4.203,1.875,4.864,2.823
				c0.658,0.944,1.658,2.913,0.963,5.499c-1.074,4,1.299,8.114,5.299,9.187s8.114-1.298,9.188-5.299
				c1.657-6.173,0.511-12.721-3.145-17.965c-3.662-5.253-9.422-8.6-15.805-9.183l-1.549-0.142
				c4.934-4.834,11.045-8.426,17.717-10.319l33.307,19.382c3.579,2.083,8.171,0.869,10.254-2.71c2.083-3.58,0.87-8.172-2.71-10.255
				l-35.207-20.487c-0.166-0.097-0.334-0.186-0.504-0.269c-0.678-2.878-1.01-5.835-0.988-8.835
				c0.135-18.671,14.478-34.153,32.914-36.627c-2.94,4.817-4.634,10.469-4.634,16.507v0.112c0,17.562,14.334,31.851,31.953,31.851
				h13.69v25.83c-6.693,0.93-12.099,6.075-13.24,12.915l-3.66,21.954c-0.315,1.89-0.408,3.787-0.288,5.66H182.64
				c-4.142,0-7.5,3.357-7.5,7.5s3.358,7.5,7.5,7.5h55.018c2.965,3.277,6.712,5.665,10.841,6.975v34.975H182.64
				c-4.142,0-7.5,3.357-7.5,7.5s3.358,7.5,7.5,7.5h65.859v41.952H182.64c-4.142,0-7.5,3.357-7.5,7.5s3.358,7.5,7.5,7.5h65.859
				v41.951H182.64c-4.142,0-7.5,3.357-7.5,7.5s3.358,7.5,7.5,7.5h65.859v41.459h-40.062c-4.142,0-7.5,3.357-7.5,7.5
				s3.358,7.5,7.5,7.5h40.062v21.566c0,0.762,0.113,1.496,0.324,2.188H158.931z M255.999,169.308c-2.869,0-5.578-1.255-7.431-3.443
				c-1.852-2.186-2.644-5.06-2.173-7.886l3.66-21.954c0.051-0.309,0.316-0.532,0.63-0.532h10.627c0.313,0,0.579,0.224,0.631,0.532
				l3.66,21.954v0.001c0.471,2.824-0.32,5.698-2.172,7.884C261.577,168.053,258.868,169.308,255.999,169.308z M353.067,427.237
				h-89.893c0.211-0.692,0.324-1.427,0.324-2.188v-21.566h91.775v21.566h0.001C355.274,426.256,354.284,427.237,353.067,427.237z
				 M456.533,465.916l-8.357-18.336l42.015-11.237l1.947,20.051L456.533,465.916z M496.53,418.075
				c-0.268,0.462-0.896,1.286-2.103,1.609l-58.251,15.579c-1.848,0.492-3.755-0.599-4.249-2.437l-8.413-31.337
				c-0.32-1.195,0.078-2.145,0.345-2.605c0.268-0.462,0.896-1.286,2.103-1.609c0.741-0.198,1.426-0.5,2.044-0.887l34.639-9.265
				c4.002-1.07,6.378-5.182,5.307-9.182c-1.07-4.002-5.186-6.381-9.182-5.308l-36.141,9.666c-0.548,0.146-1.065,0.35-1.548,0.603
				c-1.49-0.046-2.839-1.052-3.243-2.556l-8.608-32.068c-0.32-1.194,0.078-2.145,0.345-2.605c0.268-0.462,0.896-1.286,2.103-1.609
				c0.449-0.12,0.879-0.279,1.285-0.472l36.663-9.806c4.002-1.07,6.378-5.182,5.308-9.182c-1.07-4.003-5.189-6.379-9.182-5.308
				l-37.537,10.039c-0.346,0.092-0.679,0.207-0.998,0.343c-1.645,0.164-3.22-0.897-3.662-2.542l-9.785-36.449
				c-0.32-1.194,0.078-2.145,0.345-2.605c0.268-0.462,0.896-1.286,2.103-1.609c0.822-0.22,1.575-0.567,2.244-1.017l35.75-9.561
				c4.002-1.07,6.378-5.182,5.308-9.182c-1.07-4.003-5.187-6.383-9.182-5.308l-37.471,10.021c-0.594,0.158-1.151,0.384-1.668,0.667
				c-1.435-0.102-2.713-1.091-3.104-2.548l-9.419-35.087c-0.32-1.195,0.078-2.145,0.345-2.605c0.268-0.463,0.896-1.286,2.103-1.609
				c0.235-0.063,0.466-0.137,0.69-0.221l36.094-9.653c4.002-1.07,6.378-5.182,5.307-9.182c-1.07-4.003-5.189-6.383-9.182-5.308
				l-36.514,9.765c-0.19,0.051-0.376,0.108-0.559,0.172c-1.753,0.318-3.492-0.757-3.961-2.503l-3.308-12.318
				c-1.074-4-5.187-6.37-9.188-5.298c-4,1.074-6.372,5.187-5.298,9.188l3.308,12.317c1.061,3.951,3.335,7.259,6.316,9.631
				c-1.442,3.651-1.678,7.651-0.641,11.513l7.587,28.263c-0.076,0.429-0.116,0.87-0.116,1.32c0,4.837-3.949,8.772-8.803,8.772
				c-4.142,0-7.5,3.357-7.5,7.5s3.357,7.5,7.5,7.5c4.853,0,8.803,3.935,8.803,8.771v24.408c0,4.837-3.949,8.771-8.803,8.771
				c-4.142,0-7.5,3.357-7.5,7.5s3.357,7.5,7.5,7.5c4.853,0,8.803,3.935,8.803,8.771v24.408c0,0.183-0.005,0.363-0.017,0.547
				c-0.206,3.367-3.323,6.106-6.948,6.106H263.499v-41.459h65.859c4.142,0,7.5-3.357,7.5-7.5s-3.357-7.5-7.5-7.5h-65.859v-41.951
				h65.859c4.142,0,7.5-3.357,7.5-7.5s-3.357-7.5-7.5-7.5h-65.859v-41.952h65.859c4.142,0,7.5-3.357,7.5-7.5s-3.357-7.5-7.5-7.5
				h-65.859v-34.975c4.129-1.311,7.875-3.697,10.841-6.975h55.018c4.142,0,7.5-3.357,7.5-7.5s-3.357-7.5-7.5-7.5h-48.671
				c0.119-1.873,0.026-3.771-0.289-5.661l-3.66-21.953c-1.14-6.84-6.546-11.985-13.239-12.915v-25.83h13.693
				c17.619,0,31.952-14.289,31.952-31.851V62.85c0-6.038-1.694-11.689-4.634-16.507c18.435,2.475,32.779,17.956,32.913,36.626
				c0.022,3.023-0.314,6.002-1.003,8.9c-0.126,0.064-0.251,0.132-0.375,0.204l-35.207,20.487c-3.58,2.083-4.793,6.675-2.71,10.255
				c2.082,3.579,6.673,4.792,10.255,2.71l33.27-19.36c6.634,1.897,12.72,5.482,17.638,10.298l-1.547,0.142
				c-6.383,0.583-12.143,3.931-15.805,9.184c-3.655,5.244-4.801,11.792-3.143,17.964c1.073,4,5.191,6.373,9.187,5.299
				c4.001-1.074,6.373-5.187,5.299-9.187c-0.693-2.586,0.306-4.555,0.964-5.498c0.661-0.949,2.173-2.578,4.864-2.824l42.245-3.859
				c10.332-0.94,19.773,5.626,22.457,15.619c0.32,1.195-0.078,2.145-0.345,2.605c-0.268,0.462-0.896,1.286-2.103,1.609
				c-3.353,0.896-5.564,3.929-5.564,7.241c0,0.642,0.083,1.293,0.257,1.941c1.069,4.002,5.184,6.378,9.182,5.308
				c1.853-0.493,3.755,0.601,4.249,2.438l8.459,31.512c0.32,1.195-0.078,2.145-0.345,2.605c-0.267,0.463-0.895,1.286-2.103,1.609
				c-3.353,0.896-5.564,3.929-5.564,7.241c0,0.642,0.083,1.293,0.257,1.941c1.069,4.001,5.185,6.377,9.182,5.308
				c1.845-0.49,3.755,0.598,4.249,2.437l9.419,35.087c0.32,1.195-0.078,2.145-0.345,2.605c-0.268,0.462-0.896,1.286-2.103,1.609
				c-3.353,0.896-5.564,3.929-5.564,7.241c0,0.642,0.083,1.293,0.257,1.941c1.07,4.002,5.184,6.376,9.182,5.308
				c1.853-0.492,3.755,0.601,4.249,2.438l9.784,36.448c0.32,1.195-0.078,2.145-0.345,2.605c-0.267,0.463-0.895,1.286-2.102,1.609
				c-3.353,0.896-5.564,3.929-5.564,7.241c0,0.642,0.083,1.293,0.257,1.941c1.069,4.001,5.184,6.375,9.182,5.308
				c1.853-0.491,3.755,0.601,4.249,2.438l8.608,32.067c0.32,1.195-0.078,2.145-0.345,2.605c-0.268,0.462-0.896,1.286-2.103,1.609
				c-3.353,0.896-5.564,3.929-5.564,7.241c0,0.642,0.083,1.293,0.257,1.941c1.069,4.002,5.185,6.379,9.182,5.308
				c1.853-0.494,3.755,0.6,4.249,2.438l8.413,31.337C497.195,416.665,496.796,417.615,496.53,418.075z"/>
			<path d="M148.381,163.194l-36.402-9.735c-3.998-1.07-8.112,1.306-9.183,5.308c-1.07,4,1.307,8.112,5.308,9.182l36.402,9.735
				c0.649,0.174,1.3,0.257,1.942,0.257c3.313,0,6.344-2.212,7.241-5.564C154.759,168.376,152.383,164.265,148.381,163.194z"/>
		</g>
	</g>
</g>
<g>
</g>
<g>
</g>
<g>
</g>
<g>
</g>
<g>
</g>
<g>
</g>
<g>
</g>
<g>
</g>
<g>
</g>
<g>
</g>
<g>
</g>
<g>
</g>
<g>
</g>
<g>
</g>
<g>
</g>
</svg>
