<?xml version="1.0" encoding="utf-8"?>
<!-- Generator: Adobe Illustrator 21.0.2, SVG Export Plug-In . SVG Version: 6.00 Build 0)  -->
<svg version="1.1" id="Слой_1" xmlns="http://www.w3.org/2000/svg" xmlns:xlink="http://www.w3.org/1999/xlink" x="0px" y="0px"
	 viewBox="0 0 512 512" style="enable-background:new 0 0 512 512;" xml:space="preserve">
<g>
	<path d="M1,162.3h114.2v-44.2H86.9v15.4H52.2v-24h32V80.7h-32V58.1h31.7v15.4h28.4V29.3H1v28.8h13.9v75.1H1V162.3L1,162.3z
		 M315.6,97.5h24.1c-4-12-8.3-24.3-11.9-34.3C324.5,70.8,319.6,84.2,315.6,97.5L315.6,97.5z M349.3,126.3h-43.6c-1,3.4-2,5.8-2,6.9
		h14.9V162h-48.9h-13.9c-32.7,0-54.1-21.6-59.7-52.1h-14.5v23h10.9v28.8h-63.4v-28.8h15.2V58.1h-15.2V29.3h65v28.8h-12.5v23.3h9.6
		c12.5,0.3,24.1-3.1,24.4-22.3c0-1.4-8.6,0-8.9-1.4V29.3h61.4v28.8h-18.2c-0.3,20.2-10.9,35.6-22.4,42.5c4.3,23,15.8,32.6,41.9,32.6
		L306,29h49.8l37,104.2H406V162h-65v-28.8h10.6C350.9,131.5,350.3,129.1,349.3,126.3L349.3,126.3z M418.9,133.2h13.9V58.1h-14.2
		v15.1h-27.7V29H512v43.9h-27.7V58.1h-14.2v75.1h13.9V162h-65V133.2L418.9,133.2z"/>
	<path d="M120.2,289.8h12.5v-75.4h-12.5v-29.1h61.4c26.1,0,55.1,13.7,54.8,47.3s-23.8,47.3-53.1,47.3h-12.9v9.9h13.9v29.1h-64V289.8
		L120.2,289.8z M1,318.6h112.9v-44.2H86.9v15.4H52.2v-24h32v-29.1h-32v-22.3h31.7v15.4h28.4v-44.2H1v29.1h13.9v75.4H1V318.6L1,318.6
		z M327.8,185.6l-42.9,76.1v-47.3h9.6v-28.8H237v28.8h10.6v75.4H237v28.8h45.9l42.3-75.1v46.3h-9.6v28.8h57.8v-28.8h-11.2v-75.4
		h11.2v-28.8H327.8L327.8,185.6z M437.7,185.6v29.1h-9.9v23.3h35v-23.3h-9.9v-29.1h57.8v29.1h-10.6v75.4h10.6v29.1h-57.8v-29.1h9.9
		v-23.3h-35v23.3h9.9v29.1H380v-29.1h10.6v-75.4H380v-29.1H437.7L437.7,185.6z M176.6,214.4H170v36.7h6.6c11.6,0,20.8-4.5,20.8-18.2
		C197.4,219.2,188.2,214.4,176.6,214.4L176.6,214.4z"/>
	<path d="M1,371h13.9v75.4H1v28.8h75.6c26.1,0,49.8-12.7,49.5-44.6c-0.3-31.9-20.5-43.2-50.2-43.2H51.9V371h32.7v12h28.4v-40.8H0.7
		V371C0.7,371,1,371,1,371z M397.1,475.2h65v-29.1h-13.9v-75.4H481v15.4h28.4v-44.2H397.1V371H411v75.4h-13.9V475.2L397.1,475.2z
		 M267.4,446.4h13.9V371c-8.6,0-17.2,0-25.7,0l-30,68.9c-16.5,37.7-50.8,44.2-86.8,30.5v-40.1h28.1v18.8c5.3,2.1,14.9,3.4,20.5-8.6
		l-39.3-69.2h-17.5v-29.1h64.4v29.1h-5.3l17.2,35.6l12.9-35.6h-5.3v-29.1c40.9,0,81.9,0,122.8,0c26.1,0,55.1,13.7,54.8,47.3
		s-23.8,47.3-53.1,47.3h-20.1v9.9h13.9v29.1h-65V446.4L267.4,446.4z M332.4,371h-13.5v36.7h13.5c11.6,0,20.8-4.5,20.8-18.2
		C353.2,375.5,344,371,332.4,371L332.4,371z M72,446.4H52.2v-29.5h21.1C95.8,416.9,95.8,446.4,72,446.4L72,446.4z"/>
</g>
</svg>
