<?xml version="1.0" encoding="iso-8859-1"?>
<!-- Generator: Adobe Illustrator 19.0.0, SVG Export Plug-In . SVG Version: 6.00 Build 0)  -->
<svg version="1.1" id="Layer_1" xmlns="http://www.w3.org/2000/svg" xmlns:xlink="http://www.w3.org/1999/xlink" x="0px" y="0px"
	 viewBox="0 0 512.002 512.002" style="enable-background:new 0 0 512.002 512.002;" xml:space="preserve">
<g transform="translate(1 1)">
	<g>
		<g>
			<path d="M229.401,383c5.12,0,8.533-3.413,8.533-8.533v-51.2c0-5.12-3.413-8.533-8.533-8.533c-5.12,0-8.533,3.413-8.533,8.533
				v51.2C220.868,379.587,224.281,383,229.401,383z"/>
			<path d="M280.601,383c5.12,0,8.533-3.413,8.533-8.533v-51.2c0-5.12-3.413-8.533-8.533-8.533s-8.533,3.413-8.533,8.533v51.2
				C272.068,379.587,275.481,383,280.601,383z"/>
			<path d="M255.001-1c-140.8,0-256,115.2-256,256c0,11.598,0.797,23.017,2.31,34.217c0.955,8.466,2.454,17.265,4.516,25.516
				l0.539,1.079c2.593,10.538,5.84,20.825,9.701,30.815v0.533l0.853,1.707c9.609,24.71,23.09,47.758,39.985,68.267h-0.731
				l13.653,14.507c38.702,40.738,88.213,66.871,142.507,75.857v0.09l1.68,0.187c11.802,1.873,23.825,2.937,36.01,3.165
				c1.674,0.037,3.337,0.062,4.976,0.062c1.639,0,3.302-0.025,4.976-0.062c12.185-0.228,24.208-1.292,36.01-3.165l1.68-0.187v-0.09
				c54.293-8.986,103.805-35.118,142.507-75.857l13.653-14.507h-0.731c16.894-20.509,30.375-43.557,39.985-68.267l0.853-1.707
				v-0.533c11.01-28.484,17.068-59.38,17.068-91.627C511.001,114.2,395.801-1,255.001-1z M18.093,286.011
				c-0.115-0.951-0.224-1.901-0.319-2.851c3.413-11.947,12.8-23.893,23.04-35.84c13.653-17.067,21.333-29.867,26.453-39.253
				c2.576,5.152,6.718,11.87,12.405,20.132l-58.916,73.823C19.692,296.744,18.8,291.405,18.093,286.011z M89.956,242.554
				c0.948,1.281,1.912,2.579,2.912,3.912l1.707,2.56c6.494,8.492,12.985,16.691,17.424,24.599l-72.926,41.021
				c-2.337-0.147-4.528-0.486-6.551-0.983L89.956,242.554z M152.601,348.866V331.8c0-5.12-3.413-8.533-8.533-8.533
				s-8.533,3.413-8.533,8.533v17.067h-5.973c-3.413,0-11.947-0.853-14.507-6.827c-5.973-11.093,0.853-23.04,15.36-40.107
				c8.533-10.24,14.507-18.773,17.92-25.6c4.267,5.973,9.387,14.507,17.92,25.6l1.707,1.707c0.85,1.077,1.676,2.127,2.479,3.154
				c0.279,0.655,0.606,1.311,0.934,1.966c5.649,6.86,9.557,12.377,11.591,17.377c1.736,4.475,2.104,8.705,0.662,13.085
				c-0.074,0.218-0.138,0.435-0.221,0.654c-0.073,0.199-0.158,0.398-0.239,0.598c-0.214,0.519-0.437,1.039-0.7,1.566
				c-2.56,5.12-4.267,5.12-5.973,5.973c-0.827,0.165-1.587,0.429-2.279,0.774c-0.607,0.053-1.265,0.079-1.987,0.079H152.601z
				 M169.668,365.933v51.2h-51.2v-51.2h10.24H169.668z M99.818,314.733h-1.83h-23.23l41.554-23.374
				C111.076,297.41,104.309,305.454,99.818,314.733z M33.134,343.42V331.8h8.533h53.406c-0.33,5.775,0.703,11.791,3.767,17.92
				c0.679,1.63,1.549,3.138,2.56,4.544v62.869H79.909C60.114,395.78,44.147,370.839,33.134,343.42z M280.601,492.227
				c-17.067,1.707-34.133,1.707-51.2,0V485.4c0-14.507,11.093-25.6,25.6-25.6c14.507,0,25.6,11.093,25.6,25.6V492.227z
				 M297.667,490.085V485.4c0.001-23.893-18.773-42.667-42.666-42.667s-42.667,18.773-42.667,42.667v4.685
				c-43.488-7.923-82.962-27.726-114.923-55.885h3.989h17.067h59.734h8.533h136.533h8.533h59.733h17.068h3.989
				C380.629,462.359,341.156,482.162,297.667,490.085z M201.259,332.71c-0.277-11.851-7.052-22.631-14.525-32.504v-28.139h136.534
				v27.925c-11.078,14.664-20.715,31.338-11.093,50.581c2.543,4.578,5.711,9.142,11.093,12.094v54.466H186.734v-55.008
				c4.877-3.045,7.832-7.588,10.24-12.405c0-0.001,0.001-0.002,0.001-0.002C200.287,343.858,201.457,338.152,201.259,332.71z
				 M316.971,255h-53.437v-17.067c0-5.12-3.413-8.533-8.533-8.533s-8.533,3.413-8.533,8.533V255h-53.437l61.97-110.933L316.971,255z
				 M229.401,101.4c0-14.507,11.093-25.6,25.6-25.6s25.6,11.093,25.6,25.6c0,14.507-11.093,25.6-25.6,25.6
				S229.401,115.907,229.401,101.4z M381.295,348.867h-6.827V331.8c0-5.12-3.413-8.533-8.533-8.533s-8.533,3.413-8.533,8.533v17.067
				h-18.773c-1.45,0-2.644-0.103-3.664-0.328c-0.479-0.222-0.967-0.403-1.456-0.525c-0.056,0-0.112-0.004-0.169-0.006
				c-2.121-0.964-3.377-2.818-4.951-5.968c-5.973-11.093,1.707-22.187,14.507-38.4l1.707-1.707
				c7.68-10.24,13.653-18.773,17.067-25.6c2.828,4.954,7.427,12.258,14.265,20.446l1.946,2.594c0,0.853,0.853,1.707,1.707,2.56
				c6.079,6.839,11.476,14.352,14.997,21.34l1.217,3.407c1.405,3.279,2.034,6.3,1.896,9.206c-0.261,2.065-0.874,4.11-1.896,6.154
				C393.242,348.013,384.709,348.867,381.295,348.867z M391.534,365.933v51.2h-51.2v-51.2h40.107H391.534z M476.867,343.419
				c-11.012,27.42-26.979,52.361-46.774,73.714h-21.492v-63.532c0.297-0.443,0.587-0.889,0.849-1.352
				c0.57-0.633,1.14-1.389,1.711-2.53c2.56-5.12,4.267-11.947,3.413-17.92h53.76h8.533V343.419z M491.909,286.01
				c-1.016,7.754-2.402,15.397-4.151,22.904c-4.278,3.335-11.021,5.819-19.423,5.819h-17.067v-25.6c0-5.12-3.413-8.533-8.533-8.533
				s-8.533,3.413-8.533,8.533v25.6h-22.187h-2.56c-4.267-8.533-11.093-17.067-16.213-23.893l-0.853-0.853
				c0.853-12.8,11.947-26.453,23.04-40.96l1.707-2.56c12.8-16.213,20.48-29.013,25.6-38.4c4.267,9.387,12.8,22.187,26.453,39.253
				c10.24,11.947,19.627,23.893,23.04,35.84C492.133,284.11,492.024,285.06,491.909,286.01z M481.988,236.227
				c-19.627-23.893-26.453-39.253-29.013-46.08c-1.707-4.267-4.267-9.387-10.24-9.387c-5.973,0-8.533,5.12-10.24,9.387
				c-3.413,6.827-10.24,21.333-29.013,46.08l-1.707,2.56c-8.855,11.622-17.705,22.886-22.602,34.721
				c-4.806-7.6-7.09-12.865-8.118-15.948c-0.853-3.413-3.413-8.533-9.387-8.533c-5.973,0-8.533,5.12-10.24,8.533
				c-1.818,3.635-4.5,10.286-11.093,20.25v-14.276c0-2.63-0.906-4.805-2.476-6.303l-65.554-116.718
				c15.055-6.53,25.364-21.411,25.364-39.112c0-20.963-14.452-37.981-34.133-41.841V33.133c0-5.12-3.413-8.533-8.533-8.533
				c-5.12,0-8.533,3.413-8.533,8.533v26.425c-19.681,3.86-34.133,20.878-34.133,41.841c0,17.706,10.314,32.59,25.376,39.117
				l-64.874,116.132c-1.994,1.485-3.169,3.889-3.169,6.884v14.698c-7.219-10.674-10.053-17.736-11.947-21.525
				c-1.707-3.413-4.267-8.533-10.24-8.533c-5.973,0-8.533,5.12-9.387,8.533c-0.99,2.969-3.144,7.964-7.596,15.118
				c-0.014-0.017-0.027-0.034-0.041-0.051c-4.965-11.514-13.595-22.507-22.23-33.84l-1.707-2.56
				c-19.627-23.893-25.6-39.253-29.013-46.08c-1.707-4.267-4.267-9.387-10.24-9.387c-6.827,0.853-8.533,5.973-11.093,10.24
				c-2.56,6.827-8.533,22.187-29.013,46.08c-3.77,4.64-7.533,9.381-11.035,14.218c2.45-129.33,108.983-234.376,238.873-234.376
				c130.192,0,236.914,105.535,238.887,235.28C490.103,246.196,485.992,241.155,481.988,236.227z"/>
		</g>
	</g>
</g>
<g>
</g>
<g>
</g>
<g>
</g>
<g>
</g>
<g>
</g>
<g>
</g>
<g>
</g>
<g>
</g>
<g>
</g>
<g>
</g>
<g>
</g>
<g>
</g>
<g>
</g>
<g>
</g>
<g>
</g>
</svg>
