<?xml version="1.0" encoding="iso-8859-1"?>
<!-- Generator: Adobe Illustrator 19.0.0, SVG Export Plug-In . SVG Version: 6.00 Build 0)  -->
<svg version="1.1" id="Layer_1" xmlns="http://www.w3.org/2000/svg" xmlns:xlink="http://www.w3.org/1999/xlink" x="0px" y="0px"
	 viewBox="0 0 512.002 512.002" style="enable-background:new 0 0 512.002 512.002;" xml:space="preserve">
<g>
	<g>
		<g>
			<path d="M232.236,360.004h-0.239c-5.523,0-10,4.479-10,10c0,5.523,4.476,10,10,10h0.239c5.522,0,10-4.477,10-10
				C242.236,364.483,237.758,360.004,232.236,360.004z"/>
			<path d="M126.54,159.998H75.504c-5.523,0-10,4.477-10,10s4.477,10,10,10h51.036c5.523,0,10-4.477,10-10
				S132.063,159.998,126.54,159.998z"/>
			<path d="M155.506,160.002h-0.238c-5.523,0-10,4.477-10,10c0,5.523,4.477,10,10,10h0.238c5.524,0,10-4.477,10-10
				C165.506,164.479,161.029,160.002,155.506,160.002z"/>
			<path d="M490.905,222.441H462v-22.443C462,155.887,426.112,120,382,120H262V10c0-5.523-4.478-10-10-10h-89.999
				c-22.057,0-40,17.945-40,40.002c0,22.055,17.943,39.998,40,39.998h40v40h-122c-44.112,0-80,35.887-80,79.998V410
				c0,5.523,4.477,10,10,10h139.998v82.002c0,5.521,4.477,10,10,10H252c5.522,0,10-4.479,10-10V420h228.905
				c7.643,0,14.328-4.098,18.029-10.197c0.143-0.217,0.278-0.436,0.4-0.66c1.693-3.035,2.667-6.523,2.667-10.238V243.537
				C512.002,231.906,502.538,222.441,490.905,222.441z M490.904,242.441c0.584,0,1.097,0.512,1.097,1.096v21.906
				c0,6.565-3.672,12.422-9.584,15.29l-108.518,62.563c-5.257,3.021-11.774,2.977-17.007-0.121
				c-0.031-0.018-0.063-0.037-0.093-0.055L322,323.027v-80.586H490.904z M382,140c33.083,0,60,26.914,60,59.998v22.443H322v-22.443
				C322,166.914,348.917,140,382,140z M162.001,60c-11.028,0-20-8.971-20-19.998c0-11.029,8.972-20.002,20-20.002H242v204.996
				c0,5.514-4.485,10-9.999,10c-5.514,0-10-4.486-10-10V70c0-5.523-4.477-10-10-10H162.001z M202.001,492.002h-32.002V420h32.002
				V492.002z M241.999,492.002H222V420h19.999V492.002z M302,360h-41.035c-5.523,0-10,4.479-10,10c0,5.523,4.477,10,10,10H302v20H20
				V199.998C20,166.914,46.917,140,80.003,140h121.998v84.996c0,16.543,13.458,30,30,30c16.541,0,29.999-13.457,29.999-30V140
				h67.171C312.528,154.67,302,176.121,302,199.998V360z M322,400v-53.877l24.756,14.293c5.771,3.402,12.256,5.107,18.745,5.107
				c6.346-0.002,12.696-1.631,18.38-4.898l31.305-18.072L480.512,400H322z M492.001,383.468L433.463,332l58.029-33.443
				c0.174-0.086,0.337-0.188,0.509-0.277V383.468z"/>
		</g>
	</g>
</g>
<g>
</g>
<g>
</g>
<g>
</g>
<g>
</g>
<g>
</g>
<g>
</g>
<g>
</g>
<g>
</g>
<g>
</g>
<g>
</g>
<g>
</g>
<g>
</g>
<g>
</g>
<g>
</g>
<g>
</g>
</svg>
